<?xml version="1.0" encoding="UTF-8" standalone="no"?>
<!DOCTYPE svg PUBLIC "-//W3C//DTD SVG 1.1//EN" "http://www.w3.org/Graphics/SVG/1.1/DTD/svg11.dtd">
<svg xmlns="http://www.w3.org/2000/svg" version="1.1" viewBox="0 0 678 278">
<g stroke-width="2.00" fill="none" stroke-linecap="butt">
<path stroke="#550100" vector-effect="non-scaling-stroke" d="
  M 236.04 23.25
  Q 237.35 30.45 235.71 37.49
  Q 235.05 40.32 234.77 41.00
  Q 234.05 42.72 232.46 43.92
  Q 230.67 45.27 231.74 47.23
  Q 233.52 50.50 232.47 54.06
  Q 230.66 60.18 229.78 66.30
  Q 229.49 68.33 227.83 69.55
  Q 223.65 72.62 220.28 76.54
  Q 217.25 80.07 212.50 79.47
  Q 206.85 78.76 202.42 81.66
  Q 199.29 83.71 198.10 84.03
  Q 195.43 84.76 191.50 85.00
  Q 182.27 85.57 179.75 95.21"
/>
<path stroke="#550100" vector-effect="non-scaling-stroke" d="
  M 200.04 61.50
  Q 201.13 59.57 200.10 57.86
  A 1.35 1.03 -3.6 0 0 199.32 57.34
  Q 197.36 56.88 195.98 55.57
  Q 194.07 53.79 193.19 53.37
  Q 188.14 51.00 182.56 50.37
  A 1.00 0.72 -61.4 0 0 181.80 50.73
  L 180.38 52.42
  A 1.40 0.83 7.8 0 1 179.50 52.79
  Q 172.31 53.31 165.13 53.91
  Q 159.05 54.41 155.61 55.41
  Q 150.96 56.76 146.65 59.11
  Q 143.43 60.87 138.99 60.42
  Q 136.78 60.20 137.52 62.29
  Q 138.19 64.20 137.41 65.69
  Q 136.88 66.71 135.00 67.63
  Q 125.68 72.15 121.56 75.31
  Q 117.58 78.37 114.41 79.52
  A 1.00 0.96 -3.4 0 0 113.81 80.17
  Q 113.30 82.07 112.57 83.89
  Q 111.88 85.59 110.12 86.95
  Q 105.92 90.18 102.61 94.36
  Q 100.72 96.75 98.17 97.46
  A 1.58 1.56 88.8 0 0 97.07 98.62
  Q 95.83 103.99 94.97 107.99
  Q 94.22 111.54 97.50 111.96"
/>
<path stroke="#550100" vector-effect="non-scaling-stroke" d="
  M 158.54 131.75
  L 160.36 139.81
  Q 160.86 142.07 161.87 139.89
  Q 162.23 139.12 162.25 137.54"
/>
<path stroke="#550100" vector-effect="non-scaling-stroke" d="
  M 238.79 109.50
  Q 238.59 111.80 237.06 113.35
  Q 236.41 114.02 236.24 114.40
  Q 235.67 115.75 237.46 115.61
  Q 238.40 115.54 239.00 115.75
  Q 239.91 116.08 240.79 116.50"
/>
<path stroke="#550100" vector-effect="non-scaling-stroke" d="
  M 242.54 119.75
  Q 246.42 130.01 246.50 140.99
  A 1.65 1.59 28.5 0 0 246.79 141.91
  Q 249.67 146.07 248.75 151.00
  Q 247.24 159.09 247.95 166.79
  Q 247.96 166.85 248.11 167.70
  Q 248.43 169.49 246.55 170.73
  A 2.20 2.19 68.7 0 0 245.60 172.90
  Q 246.18 176.50 243.78 180.04
  Q 243.03 181.14 241.62 181.45
  Q 239.89 181.83 241.22 182.85
  L 244.71 185.50"
/>
<path stroke="#550100" vector-effect="non-scaling-stroke" d="
  M 364.25 184.96
  Q 367.30 185.20 370.00 183.71"
/>
<path stroke="#550100" vector-effect="non-scaling-stroke" d="
  M 377.29 181.00
  L 382.50 177.71"
/>
<path stroke="#610200" vector-effect="non-scaling-stroke" d="
  M 412.04 186.25
  Q 412.75 189.30 415.00 191.46"
/>
<path stroke="#550100" vector-effect="non-scaling-stroke" d="
  M 417.79 195.75
  Q 417.87 196.40 417.54 196.85
  A 1.22 0.81 10.6 0 1 416.69 197.21
  L 414.00 197.29"
/>
<path stroke="#550100" vector-effect="non-scaling-stroke" d="
  M 411.75 194.96
  Q 410.70 191.73 408.06 190.69
  Q 402.93 188.66 398.38 192.30
  Q 397.46 193.03 396.33 193.38
  Q 389.40 195.51 381.90 194.52
  A 1.09 1.08 83.2 0 0 380.75 195.99
  Q 381.98 199.21 379.42 200.98
  Q 375.63 203.60 371.25 205.01
  Q 368.26 205.97 365.55 207.57
  Q 364.12 208.41 363.97 210.07
  Q 363.82 211.75 362.72 213.02
  Q 361.41 214.53 360.50 215.20
  Q 359.21 216.15 357.25 216.00
  Q 354.41 215.79 351.76 217.76
  Q 348.10 220.46 344.32 222.97
  Q 342.47 224.20 339.55 226.97
  Q 336.85 229.53 333.50 231.24
  Q 327.82 234.13 322.14 237.00
  Q 313.84 241.20 312.93 241.51
  Q 307.97 243.22 302.50 242.50
  Q 300.52 242.24 298.72 242.78
  Q 296.19 243.54 295.14 243.60
  Q 291.44 243.79 287.75 244.04"
/>
<path stroke="#550100" vector-effect="non-scaling-stroke" d="
  M 286.75 244.04
  Q 285.56 244.06 285.31 243.22
  Q 285.18 242.80 285.50 241.83
  Q 286.30 239.32 283.93 240.60
  Q 283.15 241.02 282.46 241.08
  Q 277.05 241.55 271.72 240.55
  Q 271.57 240.52 268.77 240.32
  Q 265.54 240.08 262.62 236.46
  Q 260.80 234.20 259.83 236.93
  Q 258.25 241.37 253.45 237.90
  A 0.71 0.39 47.5 0 0 253.00 237.75
  L 252.75 237.79"
/>
<path stroke="#550100" vector-effect="non-scaling-stroke" d="
  M 249.75 234.46
  L 249.27 230.95
  A 0.83 0.80 78.6 0 0 248.26 230.25
  Q 243.62 231.48 239.69 229.18
  Q 237.42 227.85 237.36 227.82
  Q 232.75 225.43 228.29 222.75"
/>
<path stroke="#550100" vector-effect="non-scaling-stroke" d="
  M 224.96 218.25
  Q 224.45 212.69 222.58 207.45
  A 1.12 0.97 -89.6 0 0 222.07 206.85
  Q 221.20 206.42 221.73 207.51
  Q 223.53 211.18 221.31 214.56
  Q 220.55 215.72 215.19 219.26
  Q 215.11 219.30 212.08 221.56
  Q 209.54 223.44 206.49 224.12
  Q 204.59 224.55 200.53 224.00
  Q 197.54 223.60 194.50 223.59
  Q 190.31 223.57 188.06 220.19
  Q 187.13 218.79 187.00 220.50
  Q 186.78 223.31 184.01 223.42
  Q 179.35 223.59 175.56 220.94
  Q 173.69 219.63 166.59 212.47
  Q 166.41 212.28 166.22 212.25
  Q 165.99 212.22 165.75 212.29"
/>
<path stroke="#550100" vector-effect="non-scaling-stroke" d="
  M 158.21 198.00
  L 157.95 192.32
  A 0.96 0.66 -84.4 0 0 157.52 191.54
  Q 156.92 191.29 156.47 191.96
  Q 153.74 196.06 150.30 199.57
  Q 150.23 199.65 149.39 200.61
  Q 147.86 202.37 145.58 202.05
  Q 144.78 201.93 145.13 202.66
  Q 146.16 204.84 145.25 206.23
  Q 131.84 226.86 108.04 233.19
  A 1.07 0.99 -83.6 0 0 107.37 233.77
  Q 106.54 235.64 105.19 236.44
  Q 101.89 238.39 96.99 238.95
  Q 81.38 240.75 65.77 242.68
  Q 63.64 242.95 62.18 241.28
  A 1.00 1.00 38.3 0 0 60.54 241.47
  Q 57.80 246.58 51.50 246.03
  Q 45.21 245.48 39.24 247.06
  Q 33.45 248.60 33.19 248.66
  Q 30.13 249.31 27.07 249.94
  Q 26.70 250.01 26.50 250.19
  Q 25.93 250.71 26.89 250.93
  Q 27.18 251.00 27.61 250.93
  Q 30.06 250.55 31.81 251.98
  A 0.91 0.85 -67.3 0 1 32.12 252.81
  Q 31.27 258.26 25.75 259.29"
/>
<path stroke="#550100" vector-effect="non-scaling-stroke" d="
  M 24.00 257.46
  Q 21.82 254.93 23.42 252.11
  A 0.85 0.61 -52.3 0 0 23.45 251.26
  Q 23.05 250.75 22.36 251.01
  Q 21.87 251.20 21.50 251.86
  Q 20.20 254.17 19.36 256.68
  Q 18.72 258.58 19.25 260.86
  Q 20.51 266.28 21.50 271.77
  Q 22.03 274.66 19.53 273.11
  Q 16.09 270.97 13.19 267.31
  Q 11.18 264.78 6.54 263.75"
/>
<path stroke="#610200" vector-effect="non-scaling-stroke" d="
  M 115.25 164.96
  L 119.00 164.72
  A 1.41 0.63 5.6 0 0 119.87 164.43
  Q 120.95 163.39 118.75 163.34
  Q 116.71 163.30 114.75 163.79"
/>
<path stroke="#550100" vector-effect="non-scaling-stroke" d="
  M 110.50 158.71
  Q 110.49 157.50 109.58 156.67
  Q 107.28 154.58 104.88 152.59
  Q 103.93 151.80 102.72 151.59
  Q 101.52 151.38 100.31 151.21
  Q 98.42 150.96 96.79 150.38
  Q 92.11 148.72 87.34 147.34
  Q 87.27 147.32 83.07 146.66
  Q 80.33 146.23 78.34 144.12
  A 0.85 0.82 59.7 0 0 77.52 143.89
  Q 74.27 144.78 71.50 143.50
  Q 69.10 142.39 64.81 139.69
  Q 64.07 139.22 63.71 139.50"
/>
<path stroke="#550100" vector-effect="non-scaling-stroke" d="
  M 348.21 66.50
  Q 346.95 67.79 346.00 68.00
  Q 343.79 68.50 342.64 70.12
  Q 341.97 71.05 341.73 73.70
  Q 341.42 77.01 339.98 80.04
  Q 339.76 80.50 339.80 80.99
  Q 340.11 85.09 337.96 88.52
  A 1.26 0.96 5.7 0 1 337.18 89.00
  Q 336.13 89.19 335.46 89.88
  Q 334.80 90.54 334.89 91.96
  Q 335.24 97.90 335.09 103.85
  Q 334.97 108.35 334.91 108.65
  Q 334.47 111.14 332.53 113.03
  Q 329.56 115.89 332.32 118.71
  A 1.21 1.13 25.5 0 1 332.66 119.57
  Q 332.57 121.90 333.03 124.20
  Q 334.84 133.29 332.87 142.13
  Q 331.07 150.25 331.03 150.46
  Q 329.44 158.89 326.94 165.69
  Q 323.00 176.37 312.15 181.00
  A 1.31 1.24 0.5 0 0 311.47 181.63
  Q 310.70 183.25 309.98 184.90
  Q 309.30 186.49 308.33 187.03
  Q 307.07 187.74 305.50 187.57
  Q 304.98 187.52 304.54 187.70
  Q 300.86 189.27 294.56 190.06
  Q 289.95 190.64 283.60 193.75
  Q 279.29 195.85 275.35 192.53
  A 1.19 1.14 -28.0 0 0 274.44 192.27
  Q 271.72 192.64 269.76 192.34
  Q 268.87 192.21 265.62 190.47
  Q 263.80 189.50 261.79 189.02
  Q 259.99 188.58 258.60 187.71
  Q 257.11 186.77 255.50 186.04"
/>
<path stroke="#550100" vector-effect="non-scaling-stroke" d="
  M 250.96 173.50
  Q 251.00 172.46 251.50 171.54"
/>
<path stroke="#550100" vector-effect="non-scaling-stroke" d="
  M 251.46 159.25
  Q 250.41 153.58 251.71 148.00"
/>
<path stroke="#550100" vector-effect="non-scaling-stroke" d="
  M 250.00 105.71
  Q 249.55 103.21 247.50 102.04
  A 0.53 0.50 -59.3 0 0 246.81 102.24
  Q 243.96 106.82 239.28 103.46
  Q 238.13 102.64 236.75 102.54"
/>
<path stroke="#550100" vector-effect="non-scaling-stroke" d="
  M 232.71 95.00
  Q 233.30 91.49 229.81 89.94
  Q 225.75 88.13 222.75 88.29"
/>
<path stroke="#550100" vector-effect="non-scaling-stroke" d="
  M 235.54 85.50
  Q 235.04 88.92 236.69 93.56
  Q 237.21 95.02 238.29 94.50"
/>
<path stroke="#550100" vector-effect="non-scaling-stroke" d="
  M 290.29 106.25
  Q 290.68 113.69 289.83 121.10
  Q 289.82 121.17 289.77 122.41
  Q 289.70 124.24 288.13 125.27
  A 1.71 1.68 76.1 0 0 287.37 126.55
  Q 286.59 136.00 285.93 143.99
  Q 285.11 153.98 286.61 163.86
  Q 286.78 164.99 287.35 165.41
  Q 288.11 165.98 289.25 165.71"
/>
<path stroke="#550100" vector-effect="non-scaling-stroke" d="
  M 378.29 86.75
  Q 379.74 90.30 378.25 95.47
  Q 377.61 97.68 377.91 99.96
  Q 378.48 104.43 375.50 108.93
  Q 375.41 109.06 374.86 110.30
  Q 374.41 111.31 373.22 110.94
  A 1.56 0.78 29.0 0 0 372.28 110.90
  Q 370.76 111.48 372.06 112.73
  A 1.82 1.19 25.9 0 1 372.55 113.55
  Q 373.12 116.34 371.80 118.87
  Q 371.57 119.34 371.58 119.81
  Q 371.86 126.81 369.91 133.43
  Q 368.52 138.16 367.86 141.36
  Q 366.66 147.15 364.56 151.81
  Q 363.94 153.20 362.25 153.07
  A 1.28 0.60 12.6 0 0 361.34 153.27
  Q 360.89 153.71 361.44 154.31
  Q 363.68 156.76 363.56 159.63
  Q 363.52 160.60 362.40 164.87
  Q 361.48 168.35 359.87 172.14
  A 2.77 2.76 84.2 0 1 358.92 173.31
  Q 353.52 177.08 349.28 181.57
  A 1.86 1.71 -74.0 0 1 348.46 182.07
  Q 347.07 182.45 345.66 182.72
  Q 343.94 183.05 342.64 184.00
  Q 338.64 186.90 334.32 189.72
  Q 332.74 190.75 330.95 190.15
  Q 328.38 189.28 326.81 191.81
  Q 325.88 193.32 323.56 193.43
  A 0.74 0.65 76.2 0 1 322.90 192.97
  Q 322.45 191.90 321.47 191.43
  A 0.60 0.53 -61.5 0 0 320.76 191.69
  L 319.47 193.77
  A 1.20 1.12 9.0 0 1 318.70 194.29
  Q 315.52 194.94 312.46 193.91
  A 1.30 1.29 41.8 0 0 311.54 193.96
  L 309.21 195.00"
/>
<path stroke="#550100" vector-effect="non-scaling-stroke" d="
  M 342.21 90.75
  L 341.96 91.50"
/>
<path stroke="#550100" vector-effect="non-scaling-stroke" d="
  M 338.46 111.75
  Q 338.53 112.58 338.04 113.25"
/>
<path stroke="#550100" vector-effect="non-scaling-stroke" d="
  M 336.46 127.50
  Q 335.38 133.30 337.33 138.78
  A 1.52 1.39 46.2 0 1 337.35 139.72
  Q 333.72 151.49 332.46 163.75"
/>
<path stroke="#550100" vector-effect="non-scaling-stroke" d="
  M 318.75 183.21
  Q 314.71 183.76 312.22 188.43
  A 4.18 2.23 -11.7 0 1 310.41 189.94
  L 307.50 191.29"
/>
<path stroke="#550100" vector-effect="non-scaling-stroke" d="
  M 305.79 192.25
  L 303.75 193.21"
/>
<path stroke="#550100" vector-effect="non-scaling-stroke" d="
  M 585.79 20.50
  Q 584.74 27.46 585.16 34.49
  Q 585.31 36.94 583.92 40.52
  A 1.28 1.27 44.7 0 0 583.93 41.48
  Q 587.35 49.77 585.57 57.73
  Q 585.00 60.25 585.00 60.29
  Q 583.80 66.67 583.75 72.91
  A 1.76 1.75 85.1 0 1 582.31 74.63
  Q 580.38 74.98 580.20 75.73
  Q 580.08 76.24 581.19 77.04
  Q 582.42 77.91 583.21 79.25"
/>
<path stroke="#550100" vector-effect="non-scaling-stroke" d="
  M 583.54 80.00
  Q 584.29 88.78 586.53 97.31
  Q 588.05 103.14 591.19 108.31
  Q 594.73 114.17 596.00 118.75
  Q 596.76 121.51 594.36 122.96
  Q 593.88 123.24 593.68 123.59
  Q 592.80 125.09 594.74 124.38
  Q 596.80 123.61 599.00 123.71"
/>
<path stroke="#550100" vector-effect="non-scaling-stroke" d="
  M 674.75 132.96
  Q 673.79 133.79 672.50 133.51
  Q 667.36 132.40 662.29 133.75"
/>
<path stroke="#550100" vector-effect="non-scaling-stroke" d="
  M 658.21 128.00
  Q 657.62 126.32 656.35 125.31
  Q 655.14 124.34 653.44 124.72
  Q 649.42 125.62 646.94 129.69
  Q 642.07 137.66 640.94 139.94
  Q 639.68 142.47 636.18 145.73
  A 1.55 1.49 75.4 0 0 635.72 146.55
  Q 635.00 149.93 632.62 152.14
  Q 631.42 153.26 628.95 154.16
  Q 626.95 154.88 624.95 155.60
  Q 621.94 156.68 619.91 159.16
  Q 617.22 162.43 612.96 163.33
  A 2.84 2.83 -78.3 0 0 611.24 164.46
  Q 609.72 166.61 606.94 167.69
  Q 605.41 168.28 600.98 168.29
  Q 599.68 168.30 595.03 168.48
  Q 584.80 168.87 575.75 163.79"
/>
<path stroke="#550100" vector-effect="non-scaling-stroke" d="
  M 557.96 92.75
  L 557.72 87.56
  Q 557.61 85.05 555.95 87.18
  L 550.55 94.08
  A 1.27 1.19 -48.9 0 0 550.61 95.73
  L 553.21 98.25"
/>
<path stroke="#550100" vector-effect="non-scaling-stroke" d="
  M 553.29 99.00
  Q 552.95 100.93 552.50 101.75
  Q 548.49 108.98 546.59 116.98
  Q 545.30 122.42 545.28 122.50
  Q 542.50 133.14 540.05 143.86
  Q 539.59 145.85 538.82 146.80
  Q 537.76 148.12 536.15 148.78
  Q 534.61 149.40 534.50 149.45
  Q 531.56 150.86 530.06 151.31
  Q 526.25 152.47 522.44 149.81
  Q 518.76 147.25 517.56 145.94
  Q 516.50 144.78 515.25 144.79"
/>
<path stroke="#550100" vector-effect="non-scaling-stroke" d="
  M 507.71 104.50
  Q 506.06 99.14 506.41 94.01
  A 1.20 1.18 -88.4 0 0 505.22 92.74
  Q 501.12 92.77 503.53 94.53
  A 2.71 2.68 21.6 0 1 504.62 97.01
  Q 502.83 112.05 502.44 126.19
  Q 502.39 127.77 500.81 129.85
  A 0.48 0.46 -55.0 0 0 500.92 130.53
  L 503.96 132.50"
/>
<path stroke="#550100" vector-effect="non-scaling-stroke" d="
  M 503.96 133.00
  Q 503.82 136.65 503.25 137.75
  Q 502.40 139.40 498.89 143.74
  Q 496.83 146.29 496.72 146.38
  Q 495.00 147.77 492.74 145.74
  Q 491.16 144.32 490.38 146.30
  Q 489.38 148.87 486.60 150.21
  Q 481.17 152.81 474.87 156.04
  Q 472.74 157.14 471.27 155.24
  Q 469.23 152.59 466.83 155.75
  A 1.46 1.45 -59.3 0 1 465.08 156.20
  Q 460.07 153.93 455.29 149.16
  Q 454.04 147.92 452.33 148.36
  Q 450.23 148.89 448.03 147.48
  Q 446.30 146.37 444.25 146.54"
/>
<path stroke="#550100" vector-effect="non-scaling-stroke" d="
  M 442.00 143.96
  Q 440.14 138.14 443.75 133.21"
/>
<path stroke="#550100" vector-effect="non-scaling-stroke" d="
  M 444.50 139.29
  Q 445.26 140.95 447.00 140.21"
/>
<path stroke="#550100" vector-effect="non-scaling-stroke" d="
  M 474.04 103.00
  Q 475.40 97.18 479.25 92.71"
/>
<path stroke="#550100" vector-effect="non-scaling-stroke" d="
  M 479.75 90.46
  Q 477.99 87.10 479.14 83.42
  Q 480.66 78.55 475.98 79.63
  A 0.40 0.38 -21.2 0 0 475.71 80.20
  Q 476.13 80.91 476.95 81.19
  A 0.75 0.63 10.7 0 1 477.45 81.80
  Q 477.53 85.88 476.19 88.94
  Q 473.78 94.43 469.29 100.84
  A 1.06 0.96 55.6 0 0 469.17 101.72
  Q 469.73 103.53 468.56 104.81
  Q 464.39 109.41 456.67 112.95
  A 1.79 1.77 82.7 0 0 455.66 114.27
  Q 455.15 117.28 452.34 117.86
  Q 452.02 117.93 448.66 118.16
  Q 446.80 118.29 444.94 118.27
  Q 444.66 118.27 442.60 117.95
  Q 440.45 117.60 440.57 119.82
  Q 440.69 122.06 440.68 122.21
  Q 440.07 132.14 438.68 141.99
  Q 438.02 146.64 441.71 148.75"
/>
<path stroke="#550100" vector-effect="non-scaling-stroke" d="
  M 512.04 184.50
  Q 511.99 186.90 510.68 188.65
  A 0.60 0.53 31.1 0 0 510.94 189.47
  L 514.46 191.25"
/>
<path stroke="#550100" vector-effect="non-scaling-stroke" d="
  M 515.79 193.50
  Q 515.62 194.68 516.50 197.00
  Q 519.45 204.78 523.00 209.46"
/>
<path stroke="#550100" vector-effect="non-scaling-stroke" d="
  M 524.79 212.25
  Q 527.83 219.60 525.79 227.04
  Q 525.41 228.42 523.88 230.46
  Q 522.62 232.14 522.00 234.00
  Q 520.12 239.61 515.57 242.82
  Q 511.83 245.45 508.85 248.90
  Q 508.77 249.00 507.43 250.37
  Q 504.70 253.19 508.71 255.50"
/>
<path stroke="#550100" vector-effect="non-scaling-stroke" d="
  M 512.29 260.75
  Q 512.85 265.23 512.82 269.74
  Q 512.82 269.80 512.95 270.61
  Q 513.06 271.35 512.04 271.25"
/>
<path stroke="#550100" vector-effect="non-scaling-stroke" d="
  M 510.46 267.50
  Q 510.71 264.18 507.80 263.21
  A 1.27 1.10 -46.3 0 0 506.88 263.30
  Q 503.44 265.04 500.14 263.27
  Q 500.09 263.25 499.11 262.47
  Q 498.46 261.95 497.54 262.00"
/>
<path stroke="#550100" vector-effect="non-scaling-stroke" d="
  M 510.00 231.04
  Q 510.73 230.23 510.00 229.25
  Q 508.11 226.70 505.00 226.04"
/>
<path stroke="#550100" vector-effect="non-scaling-stroke" d="
  M 498.71 216.00
  L 499.03 213.69
  A 0.69 0.63 15.6 0 0 498.60 213.00
  Q 493.32 210.89 487.66 210.56
  Q 484.87 210.40 482.89 210.03
  Q 480.52 209.58 478.13 209.26
  Q 478.04 209.25 473.86 209.10
  Q 470.15 208.98 466.60 206.68
  A 1.22 1.21 -53.7 0 0 465.01 206.93
  Q 464.37 207.70 463.22 207.92
  Q 462.42 208.07 461.32 207.70
  Q 455.90 205.90 452.31 202.94
  Q 443.31 195.51 438.68 192.32
  Q 437.81 191.72 436.79 191.75"
/>
<path stroke="#550100" vector-effect="non-scaling-stroke" d="
  M 427.96 177.75
  Q 428.64 174.93 425.75 174.79"
/>
<path stroke="#550100" vector-effect="non-scaling-stroke" d="
  M 409.96 145.00
  L 408.33 139.20
  Q 408.02 138.11 407.54 139.17
  Q 406.37 141.74 405.99 144.12
  Q 405.96 144.30 406.07 149.25
  Q 406.14 151.98 405.25 154.53
  Q 404.58 156.47 402.38 158.85
  Q 398.99 162.50 395.94 166.44
  Q 395.10 167.51 393.47 168.53
  Q 391.24 169.91 390.68 170.14
  Q 388.21 171.17 386.17 168.65
  A 1.37 1.35 -44.0 0 0 384.09 168.63
  L 377.78 175.81
  A 1.50 1.41 -73.3 0 1 376.95 176.29
  Q 375.52 176.57 373.00 176.75
  Q 369.47 177.00 366.71 180.00"
/>
<path stroke="#550100" vector-effect="non-scaling-stroke" d="
  M 367.75 155.54
  Q 368.23 154.50 368.19 154.19
  Q 367.80 151.17 369.79 149.00"
/>
<path stroke="#550100" vector-effect="non-scaling-stroke" d="
  M 373.29 137.00
  L 373.71 135.50"
/>
<path stroke="#550100" vector-effect="non-scaling-stroke" d="
  M 379.46 111.50
  L 381.21 106.75"
/>
<path stroke="#550100" vector-effect="non-scaling-stroke" d="
  M 466.54 38.50
  Q 467.04 42.43 469.69 47.06
  Q 470.20 47.96 471.00 47.71"
/>
<path stroke="#550100" vector-effect="non-scaling-stroke" d="
  M 474.79 50.75
  Q 474.50 55.56 477.96 58.75"
/>
<path stroke="#550100" vector-effect="non-scaling-stroke" d="
  M 524.54 32.25
  Q 524.39 33.00 524.94 33.81
  Q 526.46 36.08 526.57 38.87
  Q 526.73 42.56 526.73 42.61
  Q 527.69 50.77 527.40 59.00
  Q 527.33 61.00 525.62 61.98
  A 1.21 1.05 50.4 0 0 525.58 63.81
  L 528.21 66.25"
/>
<path stroke="#550100" vector-effect="non-scaling-stroke" d="
  M 528.54 67.00
  Q 528.92 70.97 529.00 78.50
  Q 529.02 80.61 530.53 79.71
  A 1.34 1.28 -7.4 0 0 531.13 78.97
  L 531.96 76.25"
/>
<path stroke="#550100" vector-effect="non-scaling-stroke" d="
  M 369.25 81.71
  L 365.50 82.71"
/>
<path stroke="#550100" vector-effect="non-scaling-stroke" d="
  M 398.04 28.50
  Q 396.88 31.12 396.76 34.01
  Q 396.74 34.51 396.49 34.92
  Q 393.54 39.84 393.25 43.50
  Q 392.87 48.27 391.58 51.30
  Q 390.52 53.79 390.15 54.37
  Q 388.82 56.46 386.13 54.75
  Q 385.66 54.46 385.31 54.42
  Q 384.49 54.35 384.48 54.94
  Q 384.47 55.26 384.86 55.85
  Q 386.46 58.32 385.19 60.94
  Q 383.09 65.24 379.62 69.89
  Q 378.07 71.97 375.90 73.35
  Q 375.76 73.43 373.78 74.89
  Q 372.27 76.01 370.20 76.00
  A 3.47 3.38 -62.4 0 0 368.13 76.68
  Q 365.58 78.56 363.25 78.50
  Q 361.43 78.45 354.54 76.25"
/>
<path stroke="#550100" vector-effect="non-scaling-stroke" d="
  M 351.50 69.71
  Q 351.03 68.08 349.96 66.75"
/>
<path stroke="#550100" vector-effect="non-scaling-stroke" d="
  M 182.5895 9.3970
  A 2.45 0.68 1.1 0 0 180.1531 8.6701
  A 2.45 0.68 1.1 0 0 177.6905 9.3030
  A 2.45 0.68 1.1 0 0 180.1269 10.0299
  A 2.45 0.68 1.1 0 0 182.5895 9.3970"
/>
<path stroke="#550100" vector-effect="non-scaling-stroke" d="
  M 114.21 33.28
  Q 114.50 32.76 114.74 31.93
  Q 115.08 30.76 114.23 31.64
  Q 112.45 33.48 110.57 35.13
  Q 109.96 35.66 109.71 36.13
  Q 108.97 37.51 110.47 37.50
  Q 111.17 37.50 111.75 36.96
  Q 112.91 35.89 113.56 34.43
  Q 113.59 34.38 114.21 33.28"
/>
<path stroke="#550100" vector-effect="non-scaling-stroke" d="
  M 201.18 46.23
  A 1.74 1.73 77.7 0 1 200.11 47.91
  Q 198.82 48.44 198.79 49.08
  A 0.76 0.53 7.7 0 0 199.43 49.67
  Q 201.21 50.01 202.96 49.57
  A 0.57 0.53 -12.6 0 0 203.39 48.94
  L 202.71 45.66
  A 0.69 0.66 85.0 0 0 202.08 45.11
  Q 201.13 45.07 201.18 46.23"
/>
<path stroke="#820401" vector-effect="non-scaling-stroke" d="
  M 105.55 83.01
  A 0.78 0.78 0.0 0 0 104.77 82.23
  A 0.78 0.78 0.0 0 0 103.99 83.01
  A 0.78 0.78 0.0 0 0 104.77 83.79
  A 0.78 0.78 0.0 0 0 105.55 83.01"
/>
<path stroke="#550100" vector-effect="non-scaling-stroke" d="
  M 217.6690 105.7375
  A 2.96 2.08 1.5 0 0 214.7644 103.5807
  A 2.96 2.08 1.5 0 0 211.7510 105.5825
  A 2.96 2.08 1.5 0 0 214.6556 107.7393
  A 2.96 2.08 1.5 0 0 217.6690 105.7375"
/>
<path stroke="#610200" vector-effect="non-scaling-stroke" d="
  M 222.84 105.71
  A 0.54 0.54 -53.6 0 0 221.99 105.84
  Q 221.30 107.12 222.48 107.03
  Q 224.06 106.92 222.84 105.71"
/>
<path stroke="#550100" vector-effect="non-scaling-stroke" d="
  M 181.9268 116.4816
  A 3.66 0.82 133.8 0 0 185.0518 114.4076
  A 3.66 0.82 133.8 0 0 186.9932 111.1984
  A 3.66 0.82 133.8 0 0 183.8682 113.2724
  A 3.66 0.82 133.8 0 0 181.9268 116.4816"
/>
<path stroke="#550100" vector-effect="non-scaling-stroke" d="
  M 57.8983 114.0412
  A 1.42 0.73 83.6 0 0 58.4655 112.5486
  A 1.42 0.73 83.6 0 0 57.5817 111.2188
  A 1.42 0.73 83.6 0 0 57.0145 112.7114
  A 1.42 0.73 83.6 0 0 57.8983 114.0412"
/>
<path stroke="#550100" vector-effect="non-scaling-stroke" d="
  M 73.25 135.46
  Q 74.48 134.86 74.26 133.83
  Q 74.13 133.18 73.25 132.60
  Q 70.81 130.97 68.26 129.53
  Q 67.64 129.18 67.16 129.29
  Q 66.31 129.48 66.50 130.50
  Q 66.90 132.63 69.50 133.46"
/>
<path stroke="#550100" vector-effect="non-scaling-stroke" d="
  M 174.6757 132.5441
  A 1.45 0.90 98.5 0 0 175.7801 131.2430
  A 1.45 0.90 98.5 0 0 175.1043 129.6759
  A 1.45 0.90 98.5 0 0 173.9999 130.9770
  A 1.45 0.90 98.5 0 0 174.6757 132.5441"
/>
<path stroke="#550100" vector-effect="non-scaling-stroke" d="
  M 213.96 139.00
  L 214.16 137.74
  A 0.99 0.97 -63.4 0 0 213.89 136.89
  Q 210.05 133.07 204.97 130.03
  A 1.45 1.44 38.7 0 0 203.24 130.21
  Q 197.12 135.85 194.21 142.56
  Q 193.62 143.89 193.76 145.35
  Q 194.10 148.97 192.11 151.99
  Q 191.19 153.39 191.06 155.05
  Q 190.88 157.43 193.25 156.32
  Q 194.43 155.77 195.50 155.04"
/>
<path stroke="#550100" vector-effect="non-scaling-stroke" d="
  M 241.7103 144.7849
  A 2.32 0.90 48.4 0 0 240.8430 142.4525
  A 2.32 0.90 48.4 0 0 238.6297 141.3151
  A 2.32 0.90 48.4 0 0 239.4970 143.6475
  A 2.32 0.90 48.4 0 0 241.7103 144.7849"
/>
<path stroke="#550100" vector-effect="non-scaling-stroke" d="
  M 203.7998 161.8061
  A 1.66 0.77 0.9 0 0 202.1521 161.0101
  A 1.66 0.77 0.9 0 0 200.4802 161.7539
  A 1.66 0.77 0.9 0 0 202.1279 162.5499
  A 1.66 0.77 0.9 0 0 203.7998 161.8061"
/>
<path stroke="#820401" vector-effect="non-scaling-stroke" d="
  M 191.62 166.33
  Q 191.70 165.78 191.11 165.99
  A 0.78 0.74 83.3 0 0 190.61 166.66
  Q 190.56 167.46 191.38 166.73
  Q 191.58 166.55 191.62 166.33"
/>
<path stroke="#550100" vector-effect="non-scaling-stroke" d="
  M 203.79 187.25
  Q 204.65 185.97 204.16 184.76
  A 1.28 0.99 4.5 0 0 203.47 184.13
  Q 198.55 182.25 193.31 181.62
  A 0.94 0.89 22.1 0 0 192.49 181.94
  Q 188.14 187.06 190.31 193.19
  Q 190.72 194.34 192.25 194.46"
/>
<path stroke="#550100" vector-effect="non-scaling-stroke" d="
  M 177.2868 184.8672
  A 2.11 0.92 45.2 0 0 176.4528 182.7217
  A 2.11 0.92 45.2 0 0 174.3132 181.8728
  A 2.11 0.92 45.2 0 0 175.1472 184.0183
  A 2.11 0.92 45.2 0 0 177.2868 184.8672"
/>
<path stroke="#550100" vector-effect="non-scaling-stroke" d="
  M 261.3217 208.0880
  A 1.85 0.72 54.6 0 0 260.8369 206.1629
  A 1.85 0.72 54.6 0 0 259.1783 205.0720
  A 1.85 0.72 54.6 0 0 259.6631 206.9971
  A 1.85 0.72 54.6 0 0 261.3217 208.0880"
/>
<path stroke="#550100" vector-effect="non-scaling-stroke" d="
  M 354.9896 207.6455
  A 0.26 0.26 0.0 0 0 354.7172 207.3985
  L 348.4846 207.7034
  A 0.26 0.26 0.0 0 0 348.2377 207.9758
  L 348.2904 209.0545
  A 0.26 0.26 0.0 0 0 348.5628 209.3015
  L 354.7954 208.9966
  A 0.26 0.26 0.0 0 0 355.0423 208.7242
  L 354.9896 207.6455"
/>
<path stroke="#550100" vector-effect="non-scaling-stroke" d="
  M 50.4154 212.4039
  A 0.27 0.27 0.0 0 0 50.0655 212.2510
  L 40.4570 216.0165
  A 0.27 0.27 0.0 0 0 40.3041 216.3664
  L 40.4646 216.7761
  A 0.27 0.27 0.0 0 0 40.8145 216.9290
  L 50.4230 213.1635
  A 0.27 0.27 0.0 0 0 50.5759 212.8136
  L 50.4154 212.4039"
/>
<path stroke="#550100" vector-effect="non-scaling-stroke" d="
  M 93.8119 220.1866
  A 1.42 0.98 -22.5 0 0 92.1250 219.8246
  A 1.42 0.98 -22.5 0 0 91.1881 221.2734
  A 1.42 0.98 -22.5 0 0 92.8750 221.6354
  A 1.42 0.98 -22.5 0 0 93.8119 220.1866"
/>
<path stroke="#820401" vector-effect="non-scaling-stroke" d="
  M 65.31 230.84
  Q 65.06 230.62 64.77 230.82
  A 0.60 0.55 54.4 0 0 64.67 231.62
  Q 65.01 232.12 65.37 231.58
  A 0.61 0.53 -53.7 0 0 65.31 230.84"
/>
<path stroke="#820401" vector-effect="non-scaling-stroke" d="
  M 10.63 255.41
  Q 10.44 255.64 10.66 255.88
  A 0.68 0.58 -37.1 0 0 11.50 255.93
  Q 12.25 255.40 11.32 255.23
  A 0.82 0.56 19.5 0 0 10.63 255.41"
/>
<path stroke="#550100" vector-effect="non-scaling-stroke" d="
  M 463.3813 53.1228
  A 2.78 0.91 72.6 0 0 463.4184 50.1979
  A 2.78 0.91 72.6 0 0 461.7187 47.8172
  A 2.78 0.91 72.6 0 0 461.6816 50.7421
  A 2.78 0.91 72.6 0 0 463.3813 53.1228"
/>
<path stroke="#820401" vector-effect="non-scaling-stroke" d="
  M 409.95 52.62
  Q 409.64 52.74 409.46 53.21
  Q 409.21 53.82 409.77 53.47
  L 412.55 51.75
  A 0.63 0.60 -29.2 0 0 412.79 50.96
  Q 412.43 50.21 411.59 51.37
  A 3.60 3.57 7.4 0 1 409.95 52.62"
/>
<path stroke="#550100" vector-effect="non-scaling-stroke" d="
  M 443.96 71.75
  Q 440.23 64.29 431.96 67.49
  Q 426.69 69.54 421.75 72.31
  A 1.76 1.55 -4.5 0 0 421.07 73.01
  Q 419.59 76.06 420.25 80.75
  Q 421.16 87.14 415.24 91.21
  Q 413.44 92.45 415.67 94.48
  Q 416.97 95.66 416.36 97.30
  Q 415.50 99.61 413.98 102.73
  Q 413.78 103.12 413.79 103.44
  Q 413.82 104.37 414.81 103.56
  Q 417.89 101.08 420.00 100.04"
/>
<path stroke="#550100" vector-effect="non-scaling-stroke" d="
  M 486.6151 76.9304
  A 3.40 0.79 94.3 0 0 487.6578 73.5992
  A 3.40 0.79 94.3 0 0 487.1249 70.1496
  A 3.40 0.79 94.3 0 0 486.0822 73.4808
  A 3.40 0.79 94.3 0 0 486.6151 76.9304"
/>
<path stroke="#550100" vector-effect="non-scaling-stroke" d="
  M 424.2974 108.4047
  A 3.10 0.63 -29.9 0 0 421.2960 109.4039
  A 3.10 0.63 -29.9 0 0 418.9226 111.4953
  A 3.10 0.63 -29.9 0 0 421.9240 110.4961
  A 3.10 0.63 -29.9 0 0 424.2974 108.4047"
/>
<path stroke="#610200" vector-effect="non-scaling-stroke" d="
  M 591.8563 140.7126
  A 1.00 0.67 25.0 0 0 591.2332 139.6828
  A 1.00 0.67 25.0 0 0 590.0437 139.8674
  A 1.00 0.67 25.0 0 0 590.6668 140.8972
  A 1.00 0.67 25.0 0 0 591.8563 140.7126"
/>
<path stroke="#820401" vector-effect="non-scaling-stroke" d="
  M 389.07 163.36
  Q 389.06 163.64 389.28 163.81
  A 0.47 0.40 -64.0 0 0 389.93 163.53
  Q 390.27 162.50 389.58 162.74
  A 0.78 0.65 -10.8 0 0 389.07 163.36"
/>
<path stroke="#610200" vector-effect="non-scaling-stroke" d="
  M 501.1865 194.0637
  A 1.00 0.76 4.8 0 0 500.2536 193.2227
  A 1.00 0.76 4.8 0 0 499.1935 193.8963
  A 1.00 0.76 4.8 0 0 500.1264 194.7373
  A 1.00 0.76 4.8 0 0 501.1865 194.0637"
/>
<path stroke="#550100" vector-effect="non-scaling-stroke" d="
  M 523.0404 223.1594
  A 1.98 0.93 69.9 0 0 523.2334 220.9804
  A 1.98 0.93 69.9 0 0 521.6796 219.4406
  A 1.98 0.93 69.9 0 0 521.4866 221.6196
  A 1.98 0.93 69.9 0 0 523.0404 223.1594"
/>
<path stroke="#550100" vector-effect="non-scaling-stroke" d="
  M 327.0130 87.6405
  A 0.26 0.26 0.0 0 0 326.8112 87.3331
  L 321.6800 86.2705
  A 0.26 0.26 0.0 0 0 321.3727 86.4724
  L 321.2470 87.0795
  A 0.26 0.26 0.0 0 0 321.4488 87.3869
  L 326.5800 88.4495
  A 0.26 0.26 0.0 0 0 326.8873 88.2476
  L 327.0130 87.6405"
/>
<path stroke="#610200" vector-effect="non-scaling-stroke" d="
  M 306.3094 100.2710
  A 1.85 0.77 105.7 0 0 307.5513 98.6984
  A 1.85 0.77 105.7 0 0 307.3106 96.7090
  A 1.85 0.77 105.7 0 0 306.0687 98.2816
  A 1.85 0.77 105.7 0 0 306.3094 100.2710"
/>
<path stroke="#550100" vector-effect="non-scaling-stroke" d="
  M 276.0693 100.6449
  A 1.96 0.62 6.0 0 0 274.1848 99.8234
  A 1.96 0.62 6.0 0 0 272.1707 100.2351
  A 1.96 0.62 6.0 0 0 274.0552 101.0566
  A 1.96 0.62 6.0 0 0 276.0693 100.6449"
/>
<path stroke="#550100" vector-effect="non-scaling-stroke" d="
  M 274.5254 158.4292
  A 1.15 0.74 103.3 0 0 275.5102 157.4802
  A 1.15 0.74 103.3 0 0 275.0546 156.1908
  A 1.15 0.74 103.3 0 0 274.0698 157.1398
  A 1.15 0.74 103.3 0 0 274.5254 158.4292"
/>
<path stroke="#550100" vector-effect="non-scaling-stroke" d="
  M 354.5275 105.5074
  A 1.20 0.88 3.7 0 0 353.3868 104.5518
  A 1.20 0.88 3.7 0 0 352.1325 105.3526
  A 1.20 0.88 3.7 0 0 353.2732 106.3082
  A 1.20 0.88 3.7 0 0 354.5275 105.5074"
/>
<path stroke="#550100" vector-effect="non-scaling-stroke" d="
  M 365.97 120.34
  A 1.23 1.23 0.0 0 0 364.74 119.11
  A 1.23 1.23 0.0 0 0 363.51 120.34
  A 1.23 1.23 0.0 0 0 364.74 121.57
  A 1.23 1.23 0.0 0 0 365.97 120.34"
/>
</g>
<path fill="#a90100" d="
  M 236.04 23.25
  Q 237.35 30.45 235.71 37.49
  Q 235.05 40.32 234.77 41.00
  Q 234.05 42.72 232.46 43.92
  Q 230.67 45.27 231.74 47.23
  Q 233.52 50.50 232.47 54.06
  Q 230.66 60.18 229.78 66.30
  Q 229.49 68.33 227.83 69.55
  Q 223.65 72.62 220.28 76.54
  Q 217.25 80.07 212.50 79.47
  Q 206.85 78.76 202.42 81.66
  Q 199.29 83.71 198.10 84.03
  Q 195.43 84.76 191.50 85.00
  Q 182.27 85.57 179.75 95.21
  Q 178.87 96.08 178.17 95.51
  Q 177.77 95.18 177.70 94.33
  Q 177.52 92.16 177.17 90.01
  Q 176.69 87.10 177.21 85.50
  Q 177.97 83.19 179.81 81.56
  Q 183.04 78.72 183.27 74.68
  Q 183.56 69.57 187.67 66.66
  Q 191.94 63.66 196.96 62.43
  Q 197.25 62.36 198.54 62.39
  Q 199.53 62.41 200.04 61.50
  Q 201.13 59.57 200.10 57.86
  A 1.35 1.03 -3.6 0 0 199.32 57.34
  Q 197.36 56.88 195.98 55.57
  Q 194.07 53.79 193.19 53.37
  Q 188.14 51.00 182.56 50.37
  A 1.00 0.72 -61.4 0 0 181.80 50.73
  L 180.38 52.42
  A 1.40 0.83 7.8 0 1 179.50 52.79
  Q 172.31 53.31 165.13 53.91
  Q 159.05 54.41 155.61 55.41
  Q 150.96 56.76 146.65 59.11
  Q 143.43 60.87 138.99 60.42
  Q 136.78 60.20 137.52 62.29
  Q 138.19 64.20 137.41 65.69
  Q 136.88 66.71 135.00 67.63
  Q 125.68 72.15 121.56 75.31
  Q 117.58 78.37 114.41 79.52
  A 1.00 0.96 -3.4 0 0 113.81 80.17
  Q 113.30 82.07 112.57 83.89
  Q 111.88 85.59 110.12 86.95
  Q 105.92 90.18 102.61 94.36
  Q 100.72 96.75 98.17 97.46
  A 1.58 1.56 88.8 0 0 97.07 98.62
  Q 95.83 103.99 94.97 107.99
  Q 94.22 111.54 97.50 111.96
  Q 101.08 117.39 107.77 116.65
  Q 110.26 116.38 112.61 116.73
  A 1.07 1.06 -80.6 0 1 113.50 117.98
  Q 112.93 121.07 115.61 118.89
  Q 116.37 118.27 117.33 118.08
  Q 122.86 116.99 127.75 116.65
  Q 135.27 116.12 138.23 116.60
  Q 144.37 117.60 148.60 122.91
  Q 151.53 126.61 154.31 127.69
  Q 157.69 129.00 158.54 131.75
  L 160.36 139.81
  Q 160.86 142.07 161.87 139.89
  Q 162.23 139.12 162.25 137.54
  Q 164.32 130.28 167.52 123.46
  Q 168.40 121.59 169.72 120.65
  Q 171.22 119.60 173.02 118.99
  Q 175.13 118.28 174.39 116.18
  Q 173.34 113.20 175.47 110.70
  Q 181.35 103.80 189.15 99.12
  Q 195.32 95.41 202.98 94.71
  Q 204.95 94.53 205.34 96.46
  Q 205.59 97.69 206.79 98.64
  A 0.59 0.55 -47.3 0 0 207.55 98.58
  Q 213.25 93.23 220.44 95.56
  Q 231.54 99.17 238.79 109.50
  Q 238.59 111.80 237.06 113.35
  Q 236.41 114.02 236.24 114.40
  Q 235.67 115.75 237.46 115.61
  Q 238.40 115.54 239.00 115.75
  Q 239.91 116.08 240.79 116.50
  L 242.54 119.75
  Q 246.42 130.01 246.50 140.99
  A 1.65 1.59 28.5 0 0 246.79 141.91
  Q 249.67 146.07 248.75 151.00
  Q 247.24 159.09 247.95 166.79
  Q 247.96 166.85 248.11 167.70
  Q 248.43 169.49 246.55 170.73
  A 2.20 2.19 68.7 0 0 245.60 172.90
  Q 246.18 176.50 243.78 180.04
  Q 243.03 181.14 241.62 181.45
  Q 239.89 181.83 241.22 182.85
  L 244.71 185.50
  Q 246.10 188.65 250.16 188.47
  Q 252.38 188.37 253.62 190.22
  Q 255.72 193.34 260.28 195.18
  Q 261.28 195.58 261.97 196.40
  Q 263.65 198.38 266.44 199.56
  Q 268.26 200.34 269.51 202.56
  A 0.47 0.47 59.4 0 0 270.16 202.73
  Q 273.81 200.51 277.40 202.90
  A 1.37 1.26 55.6 0 0 278.31 203.11
  Q 283.80 202.23 287.50 203.00
  Q 295.04 204.57 299.62 204.87
  Q 300.59 204.94 302.13 204.41
  Q 303.41 203.97 304.76 204.04
  Q 305.30 204.06 307.74 204.08
  Q 309.73 204.10 311.08 205.56
  A 0.98 0.98 47.4 0 0 312.46 205.62
  Q 314.76 203.51 318.87 202.58
  Q 319.69 202.39 320.44 202.01
  Q 325.11 199.59 329.98 198.65
  Q 333.91 197.89 336.18 196.94
  Q 348.99 191.62 361.81 186.31
  Q 363.62 185.57 364.25 184.96
  Q 367.30 185.20 370.00 183.71
  Q 372.47 184.01 374.64 182.82
  Q 375.02 182.60 375.55 182.58
  Q 377.05 182.53 377.29 181.00
  L 382.50 177.71
  Q 384.80 177.47 386.93 178.02
  Q 390.04 178.81 391.20 178.83
  Q 393.82 178.86 396.42 178.59
  Q 399.98 178.22 401.60 178.50
  Q 408.52 179.67 412.04 186.25
  Q 412.75 189.30 415.00 191.46
  L 417.79 195.75
  Q 417.87 196.40 417.54 196.85
  A 1.22 0.81 10.6 0 1 416.69 197.21
  L 414.00 197.29
  L 411.75 194.96
  Q 410.70 191.73 408.06 190.69
  Q 402.93 188.66 398.38 192.30
  Q 397.46 193.03 396.33 193.38
  Q 389.40 195.51 381.90 194.52
  A 1.09 1.08 83.2 0 0 380.75 195.99
  Q 381.98 199.21 379.42 200.98
  Q 375.63 203.60 371.25 205.01
  Q 368.26 205.97 365.55 207.57
  Q 364.12 208.41 363.97 210.07
  Q 363.82 211.75 362.72 213.02
  Q 361.41 214.53 360.50 215.20
  Q 359.21 216.15 357.25 216.00
  Q 354.41 215.79 351.76 217.76
  Q 348.10 220.46 344.32 222.97
  Q 342.47 224.20 339.55 226.97
  Q 336.85 229.53 333.50 231.24
  Q 327.82 234.13 322.14 237.00
  Q 313.84 241.20 312.93 241.51
  Q 307.97 243.22 302.50 242.50
  Q 300.52 242.24 298.72 242.78
  Q 296.19 243.54 295.14 243.60
  Q 291.44 243.79 287.75 244.04
  L 286.75 244.04
  Q 285.56 244.06 285.31 243.22
  Q 285.18 242.80 285.50 241.83
  Q 286.30 239.32 283.93 240.60
  Q 283.15 241.02 282.46 241.08
  Q 277.05 241.55 271.72 240.55
  Q 271.57 240.52 268.77 240.32
  Q 265.54 240.08 262.62 236.46
  Q 260.80 234.20 259.83 236.93
  Q 258.25 241.37 253.45 237.90
  A 0.71 0.39 47.5 0 0 253.00 237.75
  L 252.75 237.79
  L 249.75 234.46
  L 249.27 230.95
  A 0.83 0.80 78.6 0 0 248.26 230.25
  Q 243.62 231.48 239.69 229.18
  Q 237.42 227.85 237.36 227.82
  Q 232.75 225.43 228.29 222.75
  L 224.96 218.25
  Q 224.45 212.69 222.58 207.45
  A 1.12 0.97 -89.6 0 0 222.07 206.85
  Q 221.20 206.42 221.73 207.51
  Q 223.53 211.18 221.31 214.56
  Q 220.55 215.72 215.19 219.26
  Q 215.11 219.30 212.08 221.56
  Q 209.54 223.44 206.49 224.12
  Q 204.59 224.55 200.53 224.00
  Q 197.54 223.60 194.50 223.59
  Q 190.31 223.57 188.06 220.19
  Q 187.13 218.79 187.00 220.50
  Q 186.78 223.31 184.01 223.42
  Q 179.35 223.59 175.56 220.94
  Q 173.69 219.63 166.59 212.47
  Q 166.41 212.28 166.22 212.25
  Q 165.99 212.22 165.75 212.29
  Q 160.48 205.96 158.21 198.00
  L 157.95 192.32
  A 0.96 0.66 -84.4 0 0 157.52 191.54
  Q 156.92 191.29 156.47 191.96
  Q 153.74 196.06 150.30 199.57
  Q 150.23 199.65 149.39 200.61
  Q 147.86 202.37 145.58 202.05
  Q 144.78 201.93 145.13 202.66
  Q 146.16 204.84 145.25 206.23
  Q 131.84 226.86 108.04 233.19
  A 1.07 0.99 -83.6 0 0 107.37 233.77
  Q 106.54 235.64 105.19 236.44
  Q 101.89 238.39 96.99 238.95
  Q 81.38 240.75 65.77 242.68
  Q 63.64 242.95 62.18 241.28
  A 1.00 1.00 38.3 0 0 60.54 241.47
  Q 57.80 246.58 51.50 246.03
  Q 45.21 245.48 39.24 247.06
  Q 33.45 248.60 33.19 248.66
  Q 30.13 249.31 27.07 249.94
  Q 26.70 250.01 26.50 250.19
  Q 25.93 250.71 26.89 250.93
  Q 27.18 251.00 27.61 250.93
  Q 30.06 250.55 31.81 251.98
  A 0.91 0.85 -67.3 0 1 32.12 252.81
  Q 31.27 258.26 25.75 259.29
  L 24.00 257.46
  Q 21.82 254.93 23.42 252.11
  A 0.85 0.61 -52.3 0 0 23.45 251.26
  Q 23.05 250.75 22.36 251.01
  Q 21.87 251.20 21.50 251.86
  Q 20.20 254.17 19.36 256.68
  Q 18.72 258.58 19.25 260.86
  Q 20.51 266.28 21.50 271.77
  Q 22.03 274.66 19.53 273.11
  Q 16.09 270.97 13.19 267.31
  Q 11.18 264.78 6.54 263.75
  Q 5.14 262.34 4.01 260.73
  Q 2.54 258.64 3.16 256.41
  Q 3.95 253.56 3.96 253.50
  Q 4.57 249.47 5.75 245.57
  Q 6.38 243.47 6.41 240.81
  Q 6.54 230.91 14.79 225.03
  Q 20.54 220.93 26.17 216.67
  Q 31.75 212.45 35.36 210.57
  Q 40.28 208.00 45.56 206.22
  Q 46.91 205.76 48.49 205.59
  Q 49.75 205.45 51.01 205.31
  A 1.14 1.09 -74.9 0 0 51.78 204.84
  Q 53.23 202.84 54.81 202.06
  Q 56.30 201.33 60.44 200.14
  Q 62.06 199.68 65.14 199.65
  Q 68.38 199.62 71.36 198.27
  Q 71.81 198.07 72.31 198.10
  Q 78.29 198.42 83.85 194.22
  A 3.06 3.01 82.1 0 0 84.86 192.86
  Q 86.91 187.34 91.71 185.39
  Q 95.57 183.82 95.65 183.78
  Q 98.19 182.47 100.69 181.09
  Q 103.28 179.66 105.19 177.66
  Q 110.80 171.79 115.25 164.96
  L 119.00 164.72
  A 1.41 0.63 5.6 0 0 119.87 164.43
  Q 120.95 163.39 118.75 163.34
  Q 116.71 163.30 114.75 163.79
  L 110.50 158.71
  Q 110.49 157.50 109.58 156.67
  Q 107.28 154.58 104.88 152.59
  Q 103.93 151.80 102.72 151.59
  Q 101.52 151.38 100.31 151.21
  Q 98.42 150.96 96.79 150.38
  Q 92.11 148.72 87.34 147.34
  Q 87.27 147.32 83.07 146.66
  Q 80.33 146.23 78.34 144.12
  A 0.85 0.82 59.7 0 0 77.52 143.89
  Q 74.27 144.78 71.50 143.50
  Q 69.10 142.39 64.81 139.69
  Q 64.07 139.22 63.71 139.50
  Q 60.25 135.96 59.00 131.75
  Q 58.09 128.69 56.51 126.75
  Q 53.74 123.36 51.06 119.90
  A 1.72 1.63 25.0 0 1 50.71 119.01
  Q 50.12 111.59 50.13 104.15
  Q 50.14 94.08 50.54 91.37
  Q 51.53 84.53 55.56 79.31
  Q 60.04 73.52 62.76 69.14
  Q 65.48 64.76 67.54 62.45
  Q 70.28 59.37 73.13 56.38
  Q 74.69 54.74 76.84 55.17
  A 1.04 1.04 10.4 0 0 78.06 54.33
  Q 79.46 46.37 86.73 42.97
  Q 89.90 41.48 92.93 39.74
  Q 95.64 38.19 98.45 35.49
  Q 101.26 32.79 104.15 30.17
  Q 107.15 27.44 110.45 25.62
  Q 115.92 22.61 121.68 20.17
  Q 127.06 17.88 132.20 15.37
  Q 133.88 14.55 135.43 15.60
  Q 137.45 16.97 138.00 14.38
  A 2.79 2.78 81.9 0 1 139.39 12.52
  Q 143.07 10.50 147.10 9.20
  Q 147.22 9.16 151.76 7.42
  Q 154.07 6.54 156.57 6.43
  Q 160.02 6.27 161.37 5.95
  Q 165.29 5.03 169.18 3.94
  Q 174.00 2.59 177.08 2.43
  Q 182.83 2.14 189.94 3.06
  Q 204.44 4.95 214.69 8.81
  Q 221.98 11.56 230.31 17.44
  Q 234.29 20.25 236.04 23.25
  Z
  M 182.5895 9.3970
  A 2.45 0.68 1.1 0 0 180.1531 8.6701
  A 2.45 0.68 1.1 0 0 177.6905 9.3030
  A 2.45 0.68 1.1 0 0 180.1269 10.0299
  A 2.45 0.68 1.1 0 0 182.5895 9.3970
  Z
  M 114.21 33.28
  Q 114.50 32.76 114.74 31.93
  Q 115.08 30.76 114.23 31.64
  Q 112.45 33.48 110.57 35.13
  Q 109.96 35.66 109.71 36.13
  Q 108.97 37.51 110.47 37.50
  Q 111.17 37.50 111.75 36.96
  Q 112.91 35.89 113.56 34.43
  Q 113.59 34.38 114.21 33.28
  Z
  M 201.18 46.23
  A 1.74 1.73 77.7 0 1 200.11 47.91
  Q 198.82 48.44 198.79 49.08
  A 0.76 0.53 7.7 0 0 199.43 49.67
  Q 201.21 50.01 202.96 49.57
  A 0.57 0.53 -12.6 0 0 203.39 48.94
  L 202.71 45.66
  A 0.69 0.66 85.0 0 0 202.08 45.11
  Q 201.13 45.07 201.18 46.23
  Z
  M 105.55 83.01
  A 0.78 0.78 0.0 0 0 104.77 82.23
  A 0.78 0.78 0.0 0 0 103.99 83.01
  A 0.78 0.78 0.0 0 0 104.77 83.79
  A 0.78 0.78 0.0 0 0 105.55 83.01
  Z
  M 217.6690 105.7375
  A 2.96 2.08 1.5 0 0 214.7644 103.5807
  A 2.96 2.08 1.5 0 0 211.7510 105.5825
  A 2.96 2.08 1.5 0 0 214.6556 107.7393
  A 2.96 2.08 1.5 0 0 217.6690 105.7375
  Z
  M 222.84 105.71
  A 0.54 0.54 -53.6 0 0 221.99 105.84
  Q 221.30 107.12 222.48 107.03
  Q 224.06 106.92 222.84 105.71
  Z
  M 181.9268 116.4816
  A 3.66 0.82 133.8 0 0 185.0518 114.4076
  A 3.66 0.82 133.8 0 0 186.9932 111.1984
  A 3.66 0.82 133.8 0 0 183.8682 113.2724
  A 3.66 0.82 133.8 0 0 181.9268 116.4816
  Z
  M 57.8983 114.0412
  A 1.42 0.73 83.6 0 0 58.4655 112.5486
  A 1.42 0.73 83.6 0 0 57.5817 111.2188
  A 1.42 0.73 83.6 0 0 57.0145 112.7114
  A 1.42 0.73 83.6 0 0 57.8983 114.0412
  Z
  M 69.50 133.46
  Q 71.03 135.15 73.25 135.46
  Q 74.48 134.86 74.26 133.83
  Q 74.13 133.18 73.25 132.60
  Q 70.81 130.97 68.26 129.53
  Q 67.64 129.18 67.16 129.29
  Q 66.31 129.48 66.50 130.50
  Q 66.90 132.63 69.50 133.46
  Z
  M 174.6757 132.5441
  A 1.45 0.90 98.5 0 0 175.7801 131.2430
  A 1.45 0.90 98.5 0 0 175.1043 129.6759
  A 1.45 0.90 98.5 0 0 173.9999 130.9770
  A 1.45 0.90 98.5 0 0 174.6757 132.5441
  Z
  M 195.50 155.04
  Q 204.67 151.59 212.83 157.37
  Q 214.27 158.40 214.25 156.65
  L 213.96 139.00
  L 214.16 137.74
  A 0.99 0.97 -63.4 0 0 213.89 136.89
  Q 210.05 133.07 204.97 130.03
  A 1.45 1.44 38.7 0 0 203.24 130.21
  Q 197.12 135.85 194.21 142.56
  Q 193.62 143.89 193.76 145.35
  Q 194.10 148.97 192.11 151.99
  Q 191.19 153.39 191.06 155.05
  Q 190.88 157.43 193.25 156.32
  Q 194.43 155.77 195.50 155.04
  Z
  M 241.7103 144.7849
  A 2.32 0.90 48.4 0 0 240.8430 142.4525
  A 2.32 0.90 48.4 0 0 238.6297 141.3151
  A 2.32 0.90 48.4 0 0 239.4970 143.6475
  A 2.32 0.90 48.4 0 0 241.7103 144.7849
  Z
  M 203.7998 161.8061
  A 1.66 0.77 0.9 0 0 202.1521 161.0101
  A 1.66 0.77 0.9 0 0 200.4802 161.7539
  A 1.66 0.77 0.9 0 0 202.1279 162.5499
  A 1.66 0.77 0.9 0 0 203.7998 161.8061
  Z
  M 191.62 166.33
  Q 191.70 165.78 191.11 165.99
  A 0.78 0.74 83.3 0 0 190.61 166.66
  Q 190.56 167.46 191.38 166.73
  Q 191.58 166.55 191.62 166.33
  Z
  M 192.25 194.46
  Q 195.26 197.78 198.68 196.43
  Q 201.02 195.49 202.35 192.62
  Q 203.52 190.10 203.79 187.25
  Q 204.65 185.97 204.16 184.76
  A 1.28 0.99 4.5 0 0 203.47 184.13
  Q 198.55 182.25 193.31 181.62
  A 0.94 0.89 22.1 0 0 192.49 181.94
  Q 188.14 187.06 190.31 193.19
  Q 190.72 194.34 192.25 194.46
  Z
  M 177.2868 184.8672
  A 2.11 0.92 45.2 0 0 176.4528 182.7217
  A 2.11 0.92 45.2 0 0 174.3132 181.8728
  A 2.11 0.92 45.2 0 0 175.1472 184.0183
  A 2.11 0.92 45.2 0 0 177.2868 184.8672
  Z
  M 261.3217 208.0880
  A 1.85 0.72 54.6 0 0 260.8369 206.1629
  A 1.85 0.72 54.6 0 0 259.1783 205.0720
  A 1.85 0.72 54.6 0 0 259.6631 206.9971
  A 1.85 0.72 54.6 0 0 261.3217 208.0880
  Z
  M 354.9896 207.6455
  A 0.26 0.26 0.0 0 0 354.7172 207.3985
  L 348.4846 207.7034
  A 0.26 0.26 0.0 0 0 348.2377 207.9758
  L 348.2904 209.0545
  A 0.26 0.26 0.0 0 0 348.5628 209.3015
  L 354.7954 208.9966
  A 0.26 0.26 0.0 0 0 355.0423 208.7242
  L 354.9896 207.6455
  Z
  M 50.4154 212.4039
  A 0.27 0.27 0.0 0 0 50.0655 212.2510
  L 40.4570 216.0165
  A 0.27 0.27 0.0 0 0 40.3041 216.3664
  L 40.4646 216.7761
  A 0.27 0.27 0.0 0 0 40.8145 216.9290
  L 50.4230 213.1635
  A 0.27 0.27 0.0 0 0 50.5759 212.8136
  L 50.4154 212.4039
  Z
  M 93.8119 220.1866
  A 1.42 0.98 -22.5 0 0 92.1250 219.8246
  A 1.42 0.98 -22.5 0 0 91.1881 221.2734
  A 1.42 0.98 -22.5 0 0 92.8750 221.6354
  A 1.42 0.98 -22.5 0 0 93.8119 220.1866
  Z
  M 65.31 230.84
  Q 65.06 230.62 64.77 230.82
  A 0.60 0.55 54.4 0 0 64.67 231.62
  Q 65.01 232.12 65.37 231.58
  A 0.61 0.53 -53.7 0 0 65.31 230.84
  Z
  M 10.63 255.41
  Q 10.44 255.64 10.66 255.88
  A 0.68 0.58 -37.1 0 0 11.50 255.93
  Q 12.25 255.40 11.32 255.23
  A 0.82 0.56 19.5 0 0 10.63 255.41
  Z"
/>
<ellipse fill="#000000" cx="0.00" cy="0.00" transform="translate(180.14,9.35) rotate(1.1)" rx="2.45" ry="0.68"/>
<path fill="#a90100" d="
  M 585.79 20.50
  Q 584.74 27.46 585.16 34.49
  Q 585.31 36.94 583.92 40.52
  A 1.28 1.27 44.7 0 0 583.93 41.48
  Q 587.35 49.77 585.57 57.73
  Q 585.00 60.25 585.00 60.29
  Q 583.80 66.67 583.75 72.91
  A 1.76 1.75 85.1 0 1 582.31 74.63
  Q 580.38 74.98 580.20 75.73
  Q 580.08 76.24 581.19 77.04
  Q 582.42 77.91 583.21 79.25
  Q 583.50 79.57 583.54 80.00
  Q 584.29 88.78 586.53 97.31
  Q 588.05 103.14 591.19 108.31
  Q 594.73 114.17 596.00 118.75
  Q 596.76 121.51 594.36 122.96
  Q 593.88 123.24 593.68 123.59
  Q 592.80 125.09 594.74 124.38
  Q 596.80 123.61 599.00 123.71
  Q 604.52 128.11 607.25 129.00
  Q 610.57 130.08 617.43 129.48
  A 0.87 0.84 -79.8 0 0 618.14 128.97
  Q 621.86 120.43 628.56 116.06
  Q 636.89 110.63 638.56 109.81
  Q 641.12 108.56 643.54 110.15
  Q 646.22 111.90 646.28 111.94
  Q 653.00 115.39 654.44 116.56
  Q 656.37 118.14 657.69 119.04
  Q 658.43 119.55 661.43 120.47
  Q 664.90 121.53 666.87 124.91
  Q 669.30 129.07 673.06 130.69
  Q 674.75 131.41 674.75 132.96
  Q 673.79 133.79 672.50 133.51
  Q 667.36 132.40 662.29 133.75
  L 658.21 128.00
  Q 657.62 126.32 656.35 125.31
  Q 655.14 124.34 653.44 124.72
  Q 649.42 125.62 646.94 129.69
  Q 642.07 137.66 640.94 139.94
  Q 639.68 142.47 636.18 145.73
  A 1.55 1.49 75.4 0 0 635.72 146.55
  Q 635.00 149.93 632.62 152.14
  Q 631.42 153.26 628.95 154.16
  Q 626.95 154.88 624.95 155.60
  Q 621.94 156.68 619.91 159.16
  Q 617.22 162.43 612.96 163.33
  A 2.84 2.83 -78.3 0 0 611.24 164.46
  Q 609.72 166.61 606.94 167.69
  Q 605.41 168.28 600.98 168.29
  Q 599.68 168.30 595.03 168.48
  Q 584.80 168.87 575.75 163.79
  Q 571.40 159.53 568.36 154.37
  Q 566.23 150.74 563.08 143.72
  Q 558.24 132.90 557.06 122.44
  Q 556.67 118.91 558.99 114.93
  A 1.12 1.10 51.3 0 0 559.08 114.02
  Q 557.28 108.97 557.50 104.75
  Q 558.00 95.10 557.96 92.75
  L 557.72 87.56
  Q 557.61 85.05 555.95 87.18
  L 550.55 94.08
  A 1.27 1.19 -48.9 0 0 550.61 95.73
  L 553.21 98.25
  L 553.29 99.00
  Q 552.95 100.93 552.50 101.75
  Q 548.49 108.98 546.59 116.98
  Q 545.30 122.42 545.28 122.50
  Q 542.50 133.14 540.05 143.86
  Q 539.59 145.85 538.82 146.80
  Q 537.76 148.12 536.15 148.78
  Q 534.61 149.40 534.50 149.45
  Q 531.56 150.86 530.06 151.31
  Q 526.25 152.47 522.44 149.81
  Q 518.76 147.25 517.56 145.94
  Q 516.50 144.78 515.25 144.79
  L 513.10 141.85
  A 1.91 1.74 -67.0 0 1 512.78 140.94
  Q 512.03 131.40 510.37 121.98
  Q 509.88 119.22 510.61 116.03
  A 3.25 3.23 33.2 0 0 510.05 113.38
  Q 507.94 110.54 508.25 106.75
  Q 508.29 106.21 507.71 104.50
  Q 506.06 99.14 506.41 94.01
  A 1.20 1.18 -88.4 0 0 505.22 92.74
  Q 501.12 92.77 503.53 94.53
  A 2.71 2.68 21.6 0 1 504.62 97.01
  Q 502.83 112.05 502.44 126.19
  Q 502.39 127.77 500.81 129.85
  A 0.48 0.46 -55.0 0 0 500.92 130.53
  L 503.96 132.50
  Q 504.04 132.75 503.96 133.00
  Q 503.82 136.65 503.25 137.75
  Q 502.40 139.40 498.89 143.74
  Q 496.83 146.29 496.72 146.38
  Q 495.00 147.77 492.74 145.74
  Q 491.16 144.32 490.38 146.30
  Q 489.38 148.87 486.60 150.21
  Q 481.17 152.81 474.87 156.04
  Q 472.74 157.14 471.27 155.24
  Q 469.23 152.59 466.83 155.75
  A 1.46 1.45 -59.3 0 1 465.08 156.20
  Q 460.07 153.93 455.29 149.16
  Q 454.04 147.92 452.33 148.36
  Q 450.23 148.89 448.03 147.48
  Q 446.30 146.37 444.25 146.54
  L 442.00 143.96
  Q 440.14 138.14 443.75 133.21
  Q 444.65 134.72 444.25 136.25
  Q 443.79 138.00 444.50 139.29
  Q 445.26 140.95 447.00 140.21
  Q 448.17 139.96 449.01 139.18
  Q 449.84 138.41 450.35 138.30
  Q 451.18 138.12 452.03 138.35
  A 1.39 1.10 33.5 0 0 452.94 138.27
  Q 455.38 136.99 457.92 135.89
  Q 461.98 134.14 463.28 137.83
  Q 463.67 138.95 464.06 137.83
  Q 465.83 132.70 466.79 127.39
  Q 467.23 124.97 468.30 120.84
  Q 469.14 117.57 469.40 114.19
  A 1.33 1.33 -19.8 0 1 469.80 113.34
  Q 472.12 111.07 472.44 109.44
  Q 473.08 106.18 474.04 103.00
  Q 475.40 97.18 479.25 92.71
  Q 481.99 92.01 479.75 90.46
  Q 477.99 87.10 479.14 83.42
  Q 480.66 78.55 475.98 79.63
  A 0.40 0.38 -21.2 0 0 475.71 80.20
  Q 476.13 80.91 476.95 81.19
  A 0.75 0.63 10.7 0 1 477.45 81.80
  Q 477.53 85.88 476.19 88.94
  Q 473.78 94.43 469.29 100.84
  A 1.06 0.96 55.6 0 0 469.17 101.72
  Q 469.73 103.53 468.56 104.81
  Q 464.39 109.41 456.67 112.95
  A 1.79 1.77 82.7 0 0 455.66 114.27
  Q 455.15 117.28 452.34 117.86
  Q 452.02 117.93 448.66 118.16
  Q 446.80 118.29 444.94 118.27
  Q 444.66 118.27 442.60 117.95
  Q 440.45 117.60 440.57 119.82
  Q 440.69 122.06 440.68 122.21
  Q 440.07 132.14 438.68 141.99
  Q 438.02 146.64 441.71 148.75
  Q 442.52 150.10 444.69 151.31
  Q 449.14 153.81 452.56 154.94
  Q 455.61 155.94 457.66 157.36
  Q 463.79 161.60 468.21 167.60
  A 0.40 0.39 -42.6 0 0 468.83 167.62
  Q 470.50 165.75 472.39 164.12
  Q 474.39 162.39 476.75 162.09
  Q 481.35 161.52 484.94 163.56
  Q 490.55 166.76 496.23 169.82
  Q 501.07 172.43 504.01 175.23
  Q 508.45 179.47 512.04 184.50
  Q 511.99 186.90 510.68 188.65
  A 0.60 0.53 31.1 0 0 510.94 189.47
  L 514.46 191.25
  L 515.79 193.50
  Q 515.62 194.68 516.50 197.00
  Q 519.45 204.78 523.00 209.46
  L 524.79 212.25
  Q 527.83 219.60 525.79 227.04
  Q 525.41 228.42 523.88 230.46
  Q 522.62 232.14 522.00 234.00
  Q 520.12 239.61 515.57 242.82
  Q 511.83 245.45 508.85 248.90
  Q 508.77 249.00 507.43 250.37
  Q 504.70 253.19 508.71 255.50
  L 512.29 260.75
  Q 512.85 265.23 512.82 269.74
  Q 512.82 269.80 512.95 270.61
  Q 513.06 271.35 512.04 271.25
  Q 510.71 269.66 510.46 267.50
  Q 510.71 264.18 507.80 263.21
  A 1.27 1.10 -46.3 0 0 506.88 263.30
  Q 503.44 265.04 500.14 263.27
  Q 500.09 263.25 499.11 262.47
  Q 498.46 261.95 497.54 262.00
  Q 495.76 260.24 494.88 258.01
  Q 494.01 255.80 494.80 253.47
  Q 496.68 247.90 503.19 246.69
  Q 507.56 245.87 506.33 242.43
  Q 505.31 239.56 505.34 238.88
  Q 505.47 236.13 507.94 234.68
  Q 509.30 233.88 509.62 233.31
  Q 510.17 232.32 510.00 231.04
  Q 510.73 230.23 510.00 229.25
  Q 508.11 226.70 505.00 226.04
  Q 500.90 221.62 498.71 216.00
  L 499.03 213.69
  A 0.69 0.63 15.6 0 0 498.60 213.00
  Q 493.32 210.89 487.66 210.56
  Q 484.87 210.40 482.89 210.03
  Q 480.52 209.58 478.13 209.26
  Q 478.04 209.25 473.86 209.10
  Q 470.15 208.98 466.60 206.68
  A 1.22 1.21 -53.7 0 0 465.01 206.93
  Q 464.37 207.70 463.22 207.92
  Q 462.42 208.07 461.32 207.70
  Q 455.90 205.90 452.31 202.94
  Q 443.31 195.51 438.68 192.32
  Q 437.81 191.72 436.79 191.75
  Q 431.84 185.09 427.96 177.75
  Q 428.64 174.93 425.75 174.79
  Q 419.04 166.83 414.69 155.56
  Q 413.30 151.96 413.19 149.81
  Q 413.10 148.16 409.96 145.00
  L 408.33 139.20
  Q 408.02 138.11 407.54 139.17
  Q 406.37 141.74 405.99 144.12
  Q 405.96 144.30 406.07 149.25
  Q 406.14 151.98 405.25 154.53
  Q 404.58 156.47 402.38 158.85
  Q 398.99 162.50 395.94 166.44
  Q 395.10 167.51 393.47 168.53
  Q 391.24 169.91 390.68 170.14
  Q 388.21 171.17 386.17 168.65
  A 1.37 1.35 -44.0 0 0 384.09 168.63
  L 377.78 175.81
  A 1.50 1.41 -73.3 0 1 376.95 176.29
  Q 375.52 176.57 373.00 176.75
  Q 369.47 177.00 366.71 180.00
  Q 365.20 181.30 363.32 181.62
  A 0.86 0.79 -21.5 0 1 362.50 181.30
  Q 361.32 179.60 363.03 178.23
  Q 363.46 177.89 363.65 177.49
  Q 364.70 175.26 365.87 173.11
  Q 366.41 172.13 367.08 171.81
  Q 367.95 171.39 368.95 171.57
  A 1.06 0.79 22.5 0 0 369.82 171.35
  Q 371.41 169.76 370.06 167.19
  Q 368.84 164.85 368.91 161.54
  Q 368.94 159.90 368.52 158.54
  Q 368.08 157.06 367.75 155.54
  Q 368.23 154.50 368.19 154.19
  Q 367.80 151.17 369.79 149.00
  Q 373.37 146.91 374.16 142.99
  A 1.23 1.01 36.6 0 0 373.94 142.11
  Q 372.24 139.76 373.29 137.00
  L 373.71 135.50
  Q 375.68 129.57 377.03 123.48
  Q 377.27 122.39 377.39 118.98
  Q 377.47 116.54 378.50 114.50
  Q 379.37 112.77 379.46 111.50
  L 381.21 106.75
  Q 383.00 105.70 383.14 103.80
  Q 383.34 100.83 383.37 100.73
  Q 386.40 88.06 388.70 75.24
  Q 389.17 72.63 390.26 70.28
  Q 390.94 68.80 393.30 66.14
  Q 396.64 62.38 398.94 57.19
  Q 401.03 52.46 404.50 47.85
  Q 407.46 43.92 412.15 40.29
  Q 418.94 35.02 425.44 31.44
  Q 428.18 29.92 431.55 29.83
  Q 436.99 29.67 437.43 29.63
  Q 443.37 29.07 449.23 29.99
  Q 456.05 31.07 458.74 32.10
  Q 463.50 33.93 466.54 38.50
  Q 467.04 42.43 469.69 47.06
  Q 470.20 47.96 471.00 47.71
  Q 473.79 48.08 474.79 50.75
  Q 474.50 55.56 477.96 58.75
  Q 478.64 60.33 479.40 61.87
  Q 479.59 62.24 479.86 62.39
  Q 480.58 62.78 480.54 61.75
  Q 480.49 60.18 480.57 58.62
  Q 480.66 57.02 480.49 55.52
  Q 479.70 48.53 481.44 44.19
  Q 482.92 40.48 482.77 36.88
  A 1.60 1.55 79.0 0 1 483.79 35.32
  L 489.22 33.35
  A 1.34 1.03 -81.1 0 0 489.88 32.72
  Q 490.36 31.77 491.36 31.52
  Q 492.89 31.15 492.97 31.11
  Q 498.12 28.94 503.06 26.31
  Q 506.47 24.50 511.58 25.81
  A 1.63 1.26 71.7 0 1 512.37 26.34
  Q 515.31 29.99 521.13 28.76
  A 1.96 1.77 68.3 0 1 523.11 29.74
  L 524.54 32.25
  Q 524.39 33.00 524.94 33.81
  Q 526.46 36.08 526.57 38.87
  Q 526.73 42.56 526.73 42.61
  Q 527.69 50.77 527.40 59.00
  Q 527.33 61.00 525.62 61.98
  A 1.21 1.05 50.4 0 0 525.58 63.81
  L 528.21 66.25
  Q 528.50 66.57 528.54 67.00
  Q 528.92 70.97 529.00 78.50
  Q 529.02 80.61 530.53 79.71
  A 1.34 1.28 -7.4 0 0 531.13 78.97
  L 531.96 76.25
  Q 534.94 70.40 533.23 64.77
  A 1.74 1.73 74.8 0 1 534.48 62.58
  Q 536.35 62.14 536.69 60.42
  Q 536.84 59.67 536.86 59.60
  Q 541.96 41.07 547.91 22.24
  A 2.17 2.17 -8.9 0 1 548.72 21.13
  Q 554.79 16.79 560.83 15.13
  Q 565.88 13.75 570.08 16.70
  A 0.77 0.76 -51.5 0 0 571.10 16.58
  Q 572.73 14.75 574.62 14.56
  Q 575.69 14.45 578.37 15.00
  Q 583.22 16.01 585.79 20.50
  Z
  M 463.3813 53.1228
  A 2.78 0.91 72.6 0 0 463.4184 50.1979
  A 2.78 0.91 72.6 0 0 461.7187 47.8172
  A 2.78 0.91 72.6 0 0 461.6816 50.7421
  A 2.78 0.91 72.6 0 0 463.3813 53.1228
  Z
  M 409.95 52.62
  Q 409.64 52.74 409.46 53.21
  Q 409.21 53.82 409.77 53.47
  L 412.55 51.75
  A 0.63 0.60 -29.2 0 0 412.79 50.96
  Q 412.43 50.21 411.59 51.37
  A 3.60 3.57 7.4 0 1 409.95 52.62
  Z
  M 420.00 100.04
  Q 427.69 98.67 434.24 94.52
  Q 438.56 91.78 441.21 87.05
  A 2.64 2.63 -88.4 0 1 442.34 85.98
  Q 445.31 84.51 444.80 82.24
  Q 444.24 79.72 444.92 77.25
  Q 445.74 74.29 443.96 71.75
  Q 440.23 64.29 431.96 67.49
  Q 426.69 69.54 421.75 72.31
  A 1.76 1.55 -4.5 0 0 421.07 73.01
  Q 419.59 76.06 420.25 80.75
  Q 421.16 87.14 415.24 91.21
  Q 413.44 92.45 415.67 94.48
  Q 416.97 95.66 416.36 97.30
  Q 415.50 99.61 413.98 102.73
  Q 413.78 103.12 413.79 103.44
  Q 413.82 104.37 414.81 103.56
  Q 417.89 101.08 420.00 100.04
  Z
  M 486.6151 76.9304
  A 3.40 0.79 94.3 0 0 487.6578 73.5992
  A 3.40 0.79 94.3 0 0 487.1249 70.1496
  A 3.40 0.79 94.3 0 0 486.0822 73.4808
  A 3.40 0.79 94.3 0 0 486.6151 76.9304
  Z
  M 424.2974 108.4047
  A 3.10 0.63 -29.9 0 0 421.2960 109.4039
  A 3.10 0.63 -29.9 0 0 418.9226 111.4953
  A 3.10 0.63 -29.9 0 0 421.9240 110.4961
  A 3.10 0.63 -29.9 0 0 424.2974 108.4047
  Z
  M 591.8563 140.7126
  A 1.00 0.67 25.0 0 0 591.2332 139.6828
  A 1.00 0.67 25.0 0 0 590.0437 139.8674
  A 1.00 0.67 25.0 0 0 590.6668 140.8972
  A 1.00 0.67 25.0 0 0 591.8563 140.7126
  Z
  M 389.07 163.36
  Q 389.06 163.64 389.28 163.81
  A 0.47 0.40 -64.0 0 0 389.93 163.53
  Q 390.27 162.50 389.58 162.74
  A 0.78 0.65 -10.8 0 0 389.07 163.36
  Z
  M 501.1865 194.0637
  A 1.00 0.76 4.8 0 0 500.2536 193.2227
  A 1.00 0.76 4.8 0 0 499.1935 193.8963
  A 1.00 0.76 4.8 0 0 500.1264 194.7373
  A 1.00 0.76 4.8 0 0 501.1865 194.0637
  Z
  M 523.0404 223.1594
  A 1.98 0.93 69.9 0 0 523.2334 220.9804
  A 1.98 0.93 69.9 0 0 521.6796 219.4406
  A 1.98 0.93 69.9 0 0 521.4866 221.6196
  A 1.98 0.93 69.9 0 0 523.0404 223.1594
  Z"
/>
<path fill="#a90100" d="
  M 398.04 28.50
  Q 396.88 31.12 396.76 34.01
  Q 396.74 34.51 396.49 34.92
  Q 393.54 39.84 393.25 43.50
  Q 392.87 48.27 391.58 51.30
  Q 390.52 53.79 390.15 54.37
  Q 388.82 56.46 386.13 54.75
  Q 385.66 54.46 385.31 54.42
  Q 384.49 54.35 384.48 54.94
  Q 384.47 55.26 384.86 55.85
  Q 386.46 58.32 385.19 60.94
  Q 383.09 65.24 379.62 69.89
  Q 378.07 71.97 375.90 73.35
  Q 375.76 73.43 373.78 74.89
  Q 372.27 76.01 370.20 76.00
  A 3.47 3.38 -62.4 0 0 368.13 76.68
  Q 365.58 78.56 363.25 78.50
  Q 361.43 78.45 354.54 76.25
  Q 351.77 73.92 351.92 70.34
  A 0.59 0.38 -77.8 0 0 351.74 69.86
  L 351.50 69.71
  Q 351.03 68.08 349.96 66.75
  Q 349.86 64.95 350.63 63.34
  Q 352.53 59.37 352.00 55.25
  Q 351.64 52.47 352.86 50.34
  Q 356.07 44.73 359.95 39.55
  Q 361.17 37.93 361.49 35.93
  Q 362.25 31.24 362.94 29.94
  Q 365.07 25.92 366.81 21.72
  A 1.77 1.55 87.5 0 1 367.41 20.97
  Q 371.10 18.52 375.34 18.17
  Q 377.86 17.96 382.66 18.12
  Q 386.38 18.24 389.96 19.40
  A 1.42 1.29 81.1 0 1 390.69 19.99
  Q 392.62 23.15 396.19 25.81
  Q 397.30 26.64 398.04 28.50
  Z"
/>
<path fill="#000000" d="
  M 585.79 20.50
  Q 586.97 21.73 587.67 23.23
  Q 588.26 24.48 588.13 26.39
  Q 587.65 33.40 587.69 40.43
  Q 587.69 40.91 587.45 41.37
  Q 586.18 43.80 587.09 46.10
  Q 588.18 48.84 588.20 48.92
  Q 589.77 55.67 588.13 62.32
  Q 587.27 65.81 587.16 68.30
  Q 586.99 72.44 586.49 76.61
  A 1.70 1.69 87.6 0 1 585.16 78.06
  Q 583.39 78.43 583.21 79.25
  Q 582.42 77.91 581.19 77.04
  Q 580.08 76.24 580.20 75.73
  Q 580.38 74.98 582.31 74.63
  A 1.76 1.75 85.1 0 0 583.75 72.91
  Q 583.80 66.67 585.00 60.29
  Q 585.00 60.25 585.57 57.73
  Q 587.35 49.77 583.93 41.48
  A 1.28 1.27 44.7 0 1 583.92 40.52
  Q 585.31 36.94 585.16 34.49
  Q 584.74 27.46 585.79 20.50
  Z"
/>
<path fill="#000000" d="
  M 236.04 23.25
  Q 239.19 26.59 239.32 31.25
  Q 239.48 37.22 238.08 43.02
  Q 237.47 45.53 235.23 47.49
  Q 233.63 48.88 234.67 50.73
  Q 236.32 53.63 235.11 57.33
  Q 234.48 59.28 233.97 61.27
  Q 233.69 62.39 233.35 65.29
  Q 232.96 68.58 231.70 71.66
  A 4.38 4.37 -5.1 0 1 229.98 73.71
  Q 226.39 75.97 223.92 79.17
  Q 220.49 83.61 214.77 83.04
  Q 208.69 82.44 203.19 86.69
  Q 200.97 88.40 197.65 88.39
  Q 193.88 88.37 193.86 88.37
  Q 189.25 88.96 186.15 92.26
  Q 185.29 93.17 184.27 95.07
  Q 183.45 96.57 182.58 98.04
  Q 182.13 98.79 181.54 99.07
  Q 179.95 99.83 180.24 97.55
  Q 180.24 97.50 180.51 96.61
  Q 180.80 95.69 179.75 95.21
  Q 182.27 85.57 191.50 85.00
  Q 195.43 84.76 198.10 84.03
  Q 199.29 83.71 202.42 81.66
  Q 206.85 78.76 212.50 79.47
  Q 217.25 80.07 220.28 76.54
  Q 223.65 72.62 227.83 69.55
  Q 229.49 68.33 229.78 66.30
  Q 230.66 60.18 232.47 54.06
  Q 233.52 50.50 231.74 47.23
  Q 230.67 45.27 232.46 43.92
  Q 234.05 42.72 234.77 41.00
  Q 235.05 40.32 235.71 37.49
  Q 237.35 30.45 236.04 23.25
  Z"
/>
<path fill="#000000" d="
  M 398.04 28.50
  Q 401.64 30.83 399.97 34.55
  Q 399.77 35.00 399.79 35.50
  Q 399.92 37.57 398.94 39.19
  Q 396.81 42.71 396.22 46.54
  Q 395.39 52.00 395.26 52.38
  Q 394.41 55.04 392.88 57.86
  A 2.22 2.03 20.6 0 1 390.47 58.83
  L 388.68 58.39
  Q 386.39 57.82 387.69 59.90
  Q 389.17 62.28 388.02 64.66
  Q 385.14 70.62 380.56 75.32
  Q 379.89 76.00 378.58 76.74
  Q 377.37 77.43 376.61 78.24
  A 3.68 3.67 19.3 0 1 374.26 79.37
  Q 370.41 79.70 369.25 81.71
  L 365.50 82.71
  Q 363.61 81.40 361.00 81.00
  Q 356.55 80.32 354.54 76.25
  Q 361.43 78.45 363.25 78.50
  Q 365.58 78.56 368.13 76.68
  A 3.47 3.38 -62.4 0 1 370.20 76.00
  Q 372.27 76.01 373.78 74.89
  Q 375.76 73.43 375.90 73.35
  Q 378.07 71.97 379.62 69.89
  Q 383.09 65.24 385.19 60.94
  Q 386.46 58.32 384.86 55.85
  Q 384.47 55.26 384.48 54.94
  Q 384.49 54.35 385.31 54.42
  Q 385.66 54.46 386.13 54.75
  Q 388.82 56.46 390.15 54.37
  Q 390.52 53.79 391.58 51.30
  Q 392.87 48.27 393.25 43.50
  Q 393.54 39.84 396.49 34.92
  Q 396.74 34.51 396.76 34.01
  Q 396.88 31.12 398.04 28.50
  Z"
/>
<path fill="#000000" d="
  M 113.56 34.43
  Q 112.91 35.89 111.75 36.96
  Q 111.17 37.50 110.47 37.50
  Q 108.97 37.51 109.71 36.13
  Q 109.96 35.66 110.57 35.13
  Q 112.45 33.48 114.23 31.64
  Q 115.08 30.76 114.74 31.93
  Q 114.50 32.76 114.21 33.28
  Q 113.59 34.38 113.56 34.43
  Z"
/>
<path fill="#000000" d="
  M 524.54 32.25
  Q 528.47 36.88 529.25 41.00
  Q 530.18 45.93 530.25 61.72
  Q 530.25 63.13 529.68 64.15
  Q 529.06 65.26 528.21 66.25
  L 525.58 63.81
  A 1.21 1.05 50.4 0 1 525.62 61.98
  Q 527.33 61.00 527.40 59.00
  Q 527.69 50.77 526.73 42.61
  Q 526.73 42.56 526.57 38.87
  Q 526.46 36.08 524.94 33.81
  Q 524.39 33.00 524.54 32.25
  Z"
/>
<path fill="#000000" d="
  M 466.54 38.50
  Q 469.26 41.13 469.69 45.31
  Q 469.81 46.52 471.00 47.71
  Q 470.20 47.96 469.69 47.06
  Q 467.04 42.43 466.54 38.50
  Z"
/>
<path fill="#000000" d="
  M 201.18 46.23
  Q 201.13 45.07 202.08 45.11
  A 0.69 0.66 85.0 0 1 202.71 45.66
  L 203.39 48.94
  A 0.57 0.53 -12.6 0 1 202.96 49.57
  Q 201.21 50.01 199.43 49.67
  A 0.76 0.53 7.7 0 1 198.79 49.08
  Q 198.82 48.44 200.11 47.91
  A 1.74 1.73 77.7 0 0 201.18 46.23
  Z"
/>
<ellipse fill="#000000" cx="0.00" cy="0.00" transform="translate(462.55,50.47) rotate(72.6)" rx="2.78" ry="0.91"/>
<path fill="#000000" d="
  M 200.04 61.50
  Q 198.79 58.57 196.25 57.21
  Q 195.38 56.75 191.18 55.24
  Q 188.30 54.20 185.19 53.97
  A 0.89 0.82 -69.4 0 0 184.42 54.36
  Q 182.40 57.31 177.75 57.00
  Q 175.60 56.86 163.77 58.19
  Q 156.03 59.07 147.94 63.44
  Q 145.96 64.50 143.01 63.96
  Q 139.67 63.36 140.50 66.75
  Q 141.15 69.42 138.39 70.85
  Q 133.06 73.62 127.84 76.60
  Q 126.86 77.16 123.13 79.99
  Q 120.76 81.79 117.94 82.77
  A 2.57 2.56 -4.4 0 0 116.25 84.73
  Q 115.41 89.32 111.44 91.69
  Q 109.34 92.94 107.39 95.62
  Q 104.20 100.02 100.94 101.19
  Q 98.71 101.98 99.13 104.26
  Q 99.23 104.80 99.13 105.23
  L 97.50 111.96
  Q 94.22 111.54 94.97 107.99
  Q 95.83 103.99 97.07 98.62
  A 1.58 1.56 88.8 0 1 98.17 97.46
  Q 100.72 96.75 102.61 94.36
  Q 105.92 90.18 110.12 86.95
  Q 111.88 85.59 112.57 83.89
  Q 113.30 82.07 113.81 80.17
  A 1.00 0.96 -3.4 0 1 114.41 79.52
  Q 117.58 78.37 121.56 75.31
  Q 125.68 72.15 135.00 67.63
  Q 136.88 66.71 137.41 65.69
  Q 138.19 64.20 137.52 62.29
  Q 136.78 60.20 138.99 60.42
  Q 143.43 60.87 146.65 59.11
  Q 150.96 56.76 155.61 55.41
  Q 159.05 54.41 165.13 53.91
  Q 172.31 53.31 179.50 52.79
  A 1.40 0.83 7.8 0 0 180.38 52.42
  L 181.80 50.73
  A 1.00 0.72 -61.4 0 1 182.56 50.37
  Q 188.14 51.00 193.19 53.37
  Q 194.07 53.79 195.98 55.57
  Q 197.36 56.88 199.32 57.34
  A 1.35 1.03 -3.6 0 1 200.10 57.86
  Q 201.13 59.57 200.04 61.50
  Z"
/>
<path fill="#5b0602" d="
  M 409.95 52.62
  A 3.60 3.57 7.4 0 0 411.59 51.37
  Q 412.43 50.21 412.79 50.96
  A 0.63 0.60 -29.2 0 1 412.55 51.75
  L 409.77 53.47
  Q 409.21 53.82 409.46 53.21
  Q 409.64 52.74 409.95 52.62
  Z"
/>
<path fill="#000000" d="
  M 474.79 50.75
  Q 478.13 53.95 477.96 58.75
  Q 474.50 55.56 474.79 50.75
  Z"
/>
<path fill="#a90100" d="
  M 348.21 66.50
  Q 346.95 67.79 346.00 68.00
  Q 343.79 68.50 342.64 70.12
  Q 341.97 71.05 341.73 73.70
  Q 341.42 77.01 339.98 80.04
  Q 339.76 80.50 339.80 80.99
  Q 340.11 85.09 337.96 88.52
  A 1.26 0.96 5.7 0 1 337.18 89.00
  Q 336.13 89.19 335.46 89.88
  Q 334.80 90.54 334.89 91.96
  Q 335.24 97.90 335.09 103.85
  Q 334.97 108.35 334.91 108.65
  Q 334.47 111.14 332.53 113.03
  Q 329.56 115.89 332.32 118.71
  A 1.21 1.13 25.5 0 1 332.66 119.57
  Q 332.57 121.90 333.03 124.20
  Q 334.84 133.29 332.87 142.13
  Q 331.07 150.25 331.03 150.46
  Q 329.44 158.89 326.94 165.69
  Q 323.00 176.37 312.15 181.00
  A 1.31 1.24 0.5 0 0 311.47 181.63
  Q 310.70 183.25 309.98 184.90
  Q 309.30 186.49 308.33 187.03
  Q 307.07 187.74 305.50 187.57
  Q 304.98 187.52 304.54 187.70
  Q 300.86 189.27 294.56 190.06
  Q 289.95 190.64 283.60 193.75
  Q 279.29 195.85 275.35 192.53
  A 1.19 1.14 -28.0 0 0 274.44 192.27
  Q 271.72 192.64 269.76 192.34
  Q 268.87 192.21 265.62 190.47
  Q 263.80 189.50 261.79 189.02
  Q 259.99 188.58 258.60 187.71
  Q 257.11 186.77 255.50 186.04
  Q 249.73 181.11 250.96 173.50
  Q 251.00 172.46 251.50 171.54
  Q 253.30 168.44 252.69 165.81
  Q 251.93 162.56 251.46 159.25
  Q 250.41 153.58 251.71 148.00
  Q 252.19 146.36 251.29 144.91
  A 1.09 1.02 39.1 0 1 251.17 144.02
  Q 252.00 141.63 251.60 139.55
  A 2.01 2.00 -19.7 0 1 252.61 137.42
  Q 254.76 136.25 252.41 134.97
  A 1.77 1.77 25.8 0 1 251.63 132.73
  Q 252.85 129.88 251.85 127.49
  Q 250.15 123.40 249.83 119.01
  Q 249.58 115.74 249.77 114.49
  Q 250.15 111.92 252.29 110.46
  A 1.42 1.38 51.0 0 0 252.48 108.34
  L 250.00 105.71
  Q 249.55 103.21 247.50 102.04
  A 0.53 0.50 -59.3 0 0 246.81 102.24
  Q 243.96 106.82 239.28 103.46
  Q 238.13 102.64 236.75 102.54
  Q 233.45 99.44 232.71 95.00
  Q 233.30 91.49 229.81 89.94
  Q 225.75 88.13 222.75 88.29
  Q 221.47 87.93 219.25 88.00
  Q 213.85 88.17 217.61 86.17
  Q 218.23 85.84 219.07 85.63
  Q 224.06 84.40 227.69 82.94
  Q 232.89 80.84 235.54 85.50
  Q 235.04 88.92 236.69 93.56
  Q 237.21 95.02 238.29 94.50
  Q 242.35 92.06 244.94 88.94
  Q 246.72 86.79 248.91 85.54
  Q 250.96 84.37 253.79 84.17
  Q 258.74 83.83 263.43 85.82
  Q 270.63 88.86 278.56 93.94
  Q 286.16 98.80 290.29 106.25
  Q 290.68 113.69 289.83 121.10
  Q 289.82 121.17 289.77 122.41
  Q 289.70 124.24 288.13 125.27
  A 1.71 1.68 76.1 0 0 287.37 126.55
  Q 286.59 136.00 285.93 143.99
  Q 285.11 153.98 286.61 163.86
  Q 286.78 164.99 287.35 165.41
  Q 288.11 165.98 289.25 165.71
  Q 290.48 166.31 291.50 165.75
  Q 294.95 163.87 296.19 162.44
  Q 297.13 161.35 297.13 159.66
  Q 297.15 157.67 297.47 156.92
  Q 298.10 155.45 299.16 154.22
  A 0.88 0.88 54.6 0 0 299.31 153.33
  Q 296.69 146.56 298.21 140.13
  Q 300.40 130.82 300.47 121.25
  Q 300.50 116.33 302.12 112.09
  A 1.36 1.35 40.7 0 0 302.03 110.93
  Q 299.30 106.20 299.05 101.66
  Q 298.79 96.96 299.55 94.37
  Q 300.63 90.70 305.03 88.63
  Q 305.77 88.29 306.16 87.75
  L 313.02 78.21
  Q 314.35 76.35 316.38 76.69
  Q 321.19 77.48 324.46 74.88
  Q 325.39 74.14 327.42 71.99
  Q 328.99 70.33 329.94 68.69
  Q 331.18 66.54 333.26 66.07
  Q 335.41 65.58 335.56 65.53
  Q 341.11 63.63 347.00 63.51
  A 1.09 0.92 -16.3 0 1 347.84 63.88
  Q 348.63 64.95 348.21 66.50
  Z
  M 327.0130 87.6405
  A 0.26 0.26 0.0 0 0 326.8112 87.3331
  L 321.6800 86.2705
  A 0.26 0.26 0.0 0 0 321.3727 86.4724
  L 321.2470 87.0795
  A 0.26 0.26 0.0 0 0 321.4488 87.3869
  L 326.5800 88.4495
  A 0.26 0.26 0.0 0 0 326.8873 88.2476
  L 327.0130 87.6405
  Z
  M 306.3094 100.2710
  A 1.85 0.77 105.7 0 0 307.5513 98.6984
  A 1.85 0.77 105.7 0 0 307.3106 96.7090
  A 1.85 0.77 105.7 0 0 306.0687 98.2816
  A 1.85 0.77 105.7 0 0 306.3094 100.2710
  Z
  M 276.0693 100.6449
  A 1.96 0.62 6.0 0 0 274.1848 99.8234
  A 1.96 0.62 6.0 0 0 272.1707 100.2351
  A 1.96 0.62 6.0 0 0 274.0552 101.0566
  A 1.96 0.62 6.0 0 0 276.0693 100.6449
  Z
  M 274.5254 158.4292
  A 1.15 0.74 103.3 0 0 275.5102 157.4802
  A 1.15 0.74 103.3 0 0 275.0546 156.1908
  A 1.15 0.74 103.3 0 0 274.0698 157.1398
  A 1.15 0.74 103.3 0 0 274.5254 158.4292
  Z"
/>
<path fill="#000000" d="
  M 348.21 66.50
  Q 348.88 67.53 349.96 66.75
  Q 351.03 68.08 351.50 69.71
  L 346.17 72.95
  A 2.90 2.78 -14.1 0 0 344.79 75.15
  Q 344.52 78.53 343.41 81.93
  Q 342.89 83.51 342.75 85.68
  Q 342.63 87.63 342.00 89.50
  Q 341.09 90.19 342.21 90.75
  L 341.96 91.50
  L 338.42 93.47
  A 1.23 1.08 84.2 0 0 337.88 94.23
  Q 337.53 95.75 337.71 97.28
  Q 337.93 99.18 337.83 100.25
  Q 337.26 106.04 338.46 111.75
  Q 338.53 112.58 338.04 113.25
  Q 337.84 111.98 337.21 113.20
  Q 335.71 116.12 333.98 118.57
  A 1.29 1.28 49.1 0 0 333.89 119.89
  Q 335.85 123.67 335.50 126.50
  Q 335.38 127.51 336.46 127.50
  Q 335.38 133.30 337.33 138.78
  A 1.52 1.39 46.2 0 1 337.35 139.72
  Q 333.72 151.49 332.46 163.75
  Q 331.20 163.54 331.00 164.50
  Q 329.25 172.94 323.68 178.52
  Q 323.60 178.60 320.99 180.56
  Q 319.59 181.61 318.75 183.21
  Q 314.71 183.76 312.22 188.43
  A 4.18 2.23 -11.7 0 1 310.41 189.94
  L 307.50 191.29
  Q 305.87 190.53 305.79 192.25
  L 303.75 193.21
  Q 303.86 192.49 303.25 192.75
  Q 300.65 193.83 298.25 193.50
  Q 297.11 193.34 292.42 194.97
  Q 292.30 195.01 287.94 197.12
  Q 284.56 198.76 280.80 197.82
  Q 280.74 197.80 278.47 196.76
  Q 276.71 195.94 274.00 196.25
  Q 271.00 196.59 267.69 193.81
  Q 266.72 193.00 264.08 192.42
  Q 261.90 191.93 260.60 190.98
  Q 257.73 188.86 255.50 186.04
  Q 257.11 186.77 258.60 187.71
  Q 259.99 188.58 261.79 189.02
  Q 263.80 189.50 265.62 190.47
  Q 268.87 192.21 269.76 192.34
  Q 271.72 192.64 274.44 192.27
  A 1.19 1.14 -28.0 0 1 275.35 192.53
  Q 279.29 195.85 283.60 193.75
  Q 289.95 190.64 294.56 190.06
  Q 300.86 189.27 304.54 187.70
  Q 304.98 187.52 305.50 187.57
  Q 307.07 187.74 308.33 187.03
  Q 309.30 186.49 309.98 184.90
  Q 310.70 183.25 311.47 181.63
  A 1.31 1.24 0.5 0 1 312.15 181.00
  Q 323.00 176.37 326.94 165.69
  Q 329.44 158.89 331.03 150.46
  Q 331.07 150.25 332.87 142.13
  Q 334.84 133.29 333.03 124.20
  Q 332.57 121.90 332.66 119.57
  A 1.21 1.13 25.5 0 0 332.32 118.71
  Q 329.56 115.89 332.53 113.03
  Q 334.47 111.14 334.91 108.65
  Q 334.97 108.35 335.09 103.85
  Q 335.24 97.90 334.89 91.96
  Q 334.80 90.54 335.46 89.88
  Q 336.13 89.19 337.18 89.00
  A 1.26 0.96 5.7 0 0 337.96 88.52
  Q 340.11 85.09 339.80 80.99
  Q 339.76 80.50 339.98 80.04
  Q 341.42 77.01 341.73 73.70
  Q 341.97 71.05 342.64 70.12
  Q 343.79 68.50 346.00 68.00
  Q 346.95 67.79 348.21 66.50
  Z"
/>
<path fill="#000000" d="
  M 443.96 71.75
  Q 439.91 69.02 434.94 70.94
  Q 431.63 72.21 429.28 73.50
  Q 429.12 73.58 425.95 75.03
  Q 421.87 76.90 422.75 82.00
  Q 424.16 90.18 418.08 94.84
  Q 416.19 96.28 418.02 97.55
  Q 418.42 97.83 418.63 98.28
  Q 419.13 99.31 420.00 100.04
  Q 417.89 101.08 414.81 103.56
  Q 413.82 104.37 413.79 103.44
  Q 413.78 103.12 413.98 102.73
  Q 415.50 99.61 416.36 97.30
  Q 416.97 95.66 415.67 94.48
  Q 413.44 92.45 415.24 91.21
  Q 421.16 87.14 420.25 80.75
  Q 419.59 76.06 421.07 73.01
  A 1.76 1.55 -4.5 0 1 421.75 72.31
  Q 426.69 69.54 431.96 67.49
  Q 440.23 64.29 443.96 71.75
  Z"
/>
<path fill="#000000" d="
  M 528.54 67.00
  Q 531.47 69.69 531.55 73.75
  Q 531.57 75.03 531.96 76.25
  L 531.13 78.97
  A 1.34 1.28 -7.4 0 1 530.53 79.71
  Q 529.02 80.61 529.00 78.50
  Q 528.92 70.97 528.54 67.00
  Z"
/>
<ellipse fill="#000000" cx="0.00" cy="0.00" transform="translate(486.87,73.54) rotate(94.3)" rx="3.40" ry="0.79"/>
<path fill="#000000" d="
  M 479.75 90.46
  Q 478.52 91.38 479.25 92.71
  Q 475.40 97.18 474.04 103.00
  Q 472.54 102.75 472.19 104.44
  Q 471.89 105.84 472.08 106.94
  A 1.07 0.88 65.5 0 1 471.85 107.80
  Q 470.49 109.24 468.97 110.48
  Q 468.82 110.61 466.31 112.82
  Q 463.59 115.22 459.83 115.96
  A 1.67 1.66 -88.3 0 0 458.53 117.19
  Q 457.93 119.54 456.08 121.12
  A 1.75 1.47 18.3 0 1 455.18 121.48
  Q 447.94 122.15 446.25 121.75
  Q 443.23 121.04 443.34 123.45
  Q 443.43 125.46 443.43 125.56
  Q 443.21 129.40 443.75 133.21
  Q 440.14 138.14 442.00 143.96
  Q 440.94 144.12 441.31 145.19
  Q 441.91 146.92 441.71 148.75
  Q 438.02 146.64 438.68 141.99
  Q 440.07 132.14 440.68 122.21
  Q 440.69 122.06 440.57 119.82
  Q 440.45 117.60 442.60 117.95
  Q 444.66 118.27 444.94 118.27
  Q 446.80 118.29 448.66 118.16
  Q 452.02 117.93 452.34 117.86
  Q 455.15 117.28 455.66 114.27
  A 1.79 1.77 82.7 0 1 456.67 112.95
  Q 464.39 109.41 468.56 104.81
  Q 469.73 103.53 469.17 101.72
  A 1.06 0.96 55.6 0 1 469.29 100.84
  Q 473.78 94.43 476.19 88.94
  Q 477.53 85.88 477.45 81.80
  A 0.75 0.63 10.7 0 0 476.95 81.19
  Q 476.13 80.91 475.71 80.20
  A 0.40 0.38 -21.2 0 1 475.98 79.63
  Q 480.66 78.55 479.14 83.42
  Q 477.99 87.10 479.75 90.46
  Z"
/>
<path fill="#000000" d="
  M 583.54 80.00
  Q 586.25 82.04 586.55 85.50
  Q 587.10 91.90 588.84 98.06
  Q 588.87 98.16 589.99 102.88
  Q 590.59 105.38 591.78 107.64
  Q 593.83 111.51 593.87 111.60
  Q 595.61 115.31 596.94 117.56
  Q 598.72 120.59 599.00 123.71
  Q 596.80 123.61 594.74 124.38
  Q 592.80 125.09 593.68 123.59
  Q 593.88 123.24 594.36 122.96
  Q 596.76 121.51 596.00 118.75
  Q 594.73 114.17 591.19 108.31
  Q 588.05 103.14 586.53 97.31
  Q 584.29 88.78 583.54 80.00
  Z"
/>
<path fill="#a90100" d="
  M 365.50 82.71
  L 369.25 81.71
  Q 375.65 81.00 378.29 86.75
  Q 379.74 90.30 378.25 95.47
  Q 377.61 97.68 377.91 99.96
  Q 378.48 104.43 375.50 108.93
  Q 375.41 109.06 374.86 110.30
  Q 374.41 111.31 373.22 110.94
  A 1.56 0.78 29.0 0 0 372.28 110.90
  Q 370.76 111.48 372.06 112.73
  A 1.82 1.19 25.9 0 1 372.55 113.55
  Q 373.12 116.34 371.80 118.87
  Q 371.57 119.34 371.58 119.81
  Q 371.86 126.81 369.91 133.43
  Q 368.52 138.16 367.86 141.36
  Q 366.66 147.15 364.56 151.81
  Q 363.94 153.20 362.25 153.07
  A 1.28 0.60 12.6 0 0 361.34 153.27
  Q 360.89 153.71 361.44 154.31
  Q 363.68 156.76 363.56 159.63
  Q 363.52 160.60 362.40 164.87
  Q 361.48 168.35 359.87 172.14
  A 2.77 2.76 84.2 0 1 358.92 173.31
  Q 353.52 177.08 349.28 181.57
  A 1.86 1.71 -74.0 0 1 348.46 182.07
  Q 347.07 182.45 345.66 182.72
  Q 343.94 183.05 342.64 184.00
  Q 338.64 186.90 334.32 189.72
  Q 332.74 190.75 330.95 190.15
  Q 328.38 189.28 326.81 191.81
  Q 325.88 193.32 323.56 193.43
  A 0.74 0.65 76.2 0 1 322.90 192.97
  Q 322.45 191.90 321.47 191.43
  A 0.60 0.53 -61.5 0 0 320.76 191.69
  L 319.47 193.77
  A 1.20 1.12 9.0 0 1 318.70 194.29
  Q 315.52 194.94 312.46 193.91
  A 1.30 1.29 41.8 0 0 311.54 193.96
  L 309.21 195.00
  Q 306.57 194.68 303.51 196.85
  A 3.75 3.73 -64.2 0 1 301.63 197.51
  Q 300.38 197.59 300.29 196.56
  A 1.01 1.00 68.2 0 1 300.65 195.71
  L 303.75 193.21
  L 305.79 192.25
  Q 306.94 192.24 307.50 191.29
  L 310.41 189.94
  A 4.18 2.23 -11.7 0 0 312.22 188.43
  Q 314.71 183.76 318.75 183.21
  Q 319.71 184.89 321.43 184.18
  Q 323.02 183.52 323.69 183.61
  Q 325.47 183.85 326.04 182.14
  Q 327.39 178.07 330.81 178.73
  Q 335.25 179.58 333.12 176.59
  Q 332.81 176.16 332.75 175.69
  Q 331.95 169.74 332.46 163.75
  Q 333.72 151.49 337.35 139.72
  A 1.52 1.39 46.2 0 0 337.33 138.78
  Q 335.38 133.30 336.46 127.50
  Q 338.51 124.82 339.43 121.55
  Q 339.53 121.20 339.42 120.59
  L 338.04 113.25
  Q 338.53 112.58 338.46 111.75
  Q 339.15 110.55 340.25 106.25
  Q 341.30 102.15 339.59 99.35
  A 1.79 1.20 39.5 0 1 339.32 98.44
  Q 339.38 96.86 340.05 95.47
  Q 340.07 95.43 341.33 93.86
  Q 342.10 92.90 341.96 91.50
  L 342.21 90.75
  L 342.89 88.99
  Q 343.11 88.42 343.38 88.19
  Q 345.75 86.24 347.27 83.54
  Q 348.68 81.05 351.75 81.75
  Q 355.65 82.63 359.30 84.29
  A 1.35 1.25 47.2 0 0 360.22 84.36
  L 365.50 82.71
  Z
  M 354.5275 105.5074
  A 1.20 0.88 3.7 0 0 353.3868 104.5518
  A 1.20 0.88 3.7 0 0 352.1325 105.3526
  A 1.20 0.88 3.7 0 0 353.2732 106.3082
  A 1.20 0.88 3.7 0 0 354.5275 105.5074
  Z
  M 365.97 120.34
  A 1.23 1.23 0.0 0 0 364.74 119.11
  A 1.23 1.23 0.0 0 0 363.51 120.34
  A 1.23 1.23 0.0 0 0 364.74 121.57
  A 1.23 1.23 0.0 0 0 365.97 120.34
  Z"
/>
<circle fill="#5b0602" cx="104.77" cy="83.01" r="0.78"/>
<path fill="#000000" d="
  M 235.54 85.50
  Q 238.44 88.15 237.84 92.01
  A 1.61 1.20 42.1 0 0 238.02 92.92
  Q 238.40 93.66 238.29 94.50
  Q 237.21 95.02 236.69 93.56
  Q 235.04 88.92 235.54 85.50
  Z"
/>
<rect fill="#000000" x="-2.88" y="-0.57" transform="translate(324.13,87.36) rotate(11.7)" width="5.76" height="1.14" rx="0.26"/>
<path fill="#000000" d="
  M 557.96 92.75
  Q 554.97 94.96 553.21 98.25
  L 550.61 95.73
  A 1.27 1.19 -48.9 0 1 550.55 94.08
  L 555.95 87.18
  Q 557.61 85.05 557.72 87.56
  L 557.96 92.75
  Z"
/>
<path fill="#000000" d="
  M 378.29 86.75
  Q 380.97 89.70 382.11 93.52
  A 1.71 1.52 -47.7 0 1 382.10 94.47
  Q 380.27 100.31 380.50 106.00
  Q 380.53 106.63 381.21 106.75
  L 379.46 111.50
  Q 378.45 111.27 378.28 112.26
  Q 377.98 114.07 375.26 114.75
  A 0.80 0.80 66.3 0 0 374.79 115.97
  Q 376.65 118.75 374.84 121.65
  Q 374.56 122.09 374.53 122.57
  L 373.97 131.94
  Q 373.94 132.36 373.67 132.85
  Q 372.90 134.18 373.71 135.50
  L 373.29 137.00
  Q 372.68 135.80 372.46 137.19
  Q 372.15 139.22 371.23 141.05
  Q 371.01 141.50 371.02 142.00
  Q 371.12 145.40 369.56 148.06
  Q 369.15 148.77 369.79 149.00
  Q 367.80 151.17 368.19 154.19
  Q 368.23 154.50 367.75 155.54
  Q 365.78 155.89 364.36 157.15
  A 0.52 0.49 47.8 0 0 364.34 157.86
  Q 366.89 160.73 366.00 164.75
  Q 364.61 171.04 362.39 176.22
  A 1.53 1.51 87.0 0 1 361.76 176.93
  Q 357.01 179.72 353.45 183.93
  Q 351.70 186.01 348.20 186.32
  A 4.46 4.43 -65.7 0 0 345.94 187.18
  Q 342.88 189.47 339.67 191.52
  Q 339.55 191.60 338.06 192.73
  Q 335.97 194.32 333.05 193.71
  Q 331.22 193.32 330.04 194.76
  Q 328.37 196.78 326.32 196.93
  A 1.01 0.79 66.2 0 1 325.54 196.51
  Q 325.00 195.77 324.21 195.42
  A 0.64 0.56 -60.5 0 0 323.48 195.68
  Q 320.84 199.69 315.91 197.88
  Q 314.16 197.24 312.65 198.21
  Q 312.33 198.42 311.75 198.49
  L 308.30 198.93
  A 1.45 0.75 -61.3 0 0 307.51 199.46
  Q 306.00 201.26 303.56 200.94
  Q 301.14 200.62 303.31 198.81
  Q 305.61 196.91 308.44 195.94
  Q 309.39 195.61 309.21 195.00
  L 311.54 193.96
  A 1.30 1.29 41.8 0 1 312.46 193.91
  Q 315.52 194.94 318.70 194.29
  A 1.20 1.12 9.0 0 0 319.47 193.77
  L 320.76 191.69
  A 0.60 0.53 -61.5 0 1 321.47 191.43
  Q 322.45 191.90 322.90 192.97
  A 0.74 0.65 76.2 0 0 323.56 193.43
  Q 325.88 193.32 326.81 191.81
  Q 328.38 189.28 330.95 190.15
  Q 332.74 190.75 334.32 189.72
  Q 338.64 186.90 342.64 184.00
  Q 343.94 183.05 345.66 182.72
  Q 347.07 182.45 348.46 182.07
  A 1.86 1.71 -74.0 0 0 349.28 181.57
  Q 353.52 177.08 358.92 173.31
  A 2.77 2.76 84.2 0 0 359.87 172.14
  Q 361.48 168.35 362.40 164.87
  Q 363.52 160.60 363.56 159.63
  Q 363.68 156.76 361.44 154.31
  Q 360.89 153.71 361.34 153.27
  A 1.28 0.60 12.6 0 1 362.25 153.07
  Q 363.94 153.20 364.56 151.81
  Q 366.66 147.15 367.86 141.36
  Q 368.52 138.16 369.91 133.43
  Q 371.86 126.81 371.58 119.81
  Q 371.57 119.34 371.80 118.87
  Q 373.12 116.34 372.55 113.55
  A 1.82 1.19 25.9 0 0 372.06 112.73
  Q 370.76 111.48 372.28 110.90
  A 1.56 0.78 29.0 0 1 373.22 110.94
  Q 374.41 111.31 374.86 110.30
  Q 375.41 109.06 375.50 108.93
  Q 378.48 104.43 377.91 99.96
  Q 377.61 97.68 378.25 95.47
  Q 379.74 90.30 378.29 86.75
  Z"
/>
<path fill="#000000" d="
  M 222.75 88.29
  Q 225.75 88.13 229.81 89.94
  Q 233.30 91.49 232.71 95.00
  Q 231.05 91.86 227.75 91.75
  Q 223.81 91.61 219.89 91.28
  Q 219.41 91.24 219.17 91.04
  Q 218.63 90.59 219.56 90.11
  Q 221.20 89.26 222.75 88.29
  Z"
/>
<path fill="#000000" d="
  M 507.71 104.50
  Q 506.80 104.05 506.75 105.00
  Q 506.40 111.28 506.50 114.00
  Q 506.54 115.02 505.79 117.53
  Q 505.30 119.21 505.34 121.04
  Q 505.40 123.58 505.25 128.25
  Q 505.16 131.01 503.96 132.50
  L 500.92 130.53
  A 0.48 0.46 -55.0 0 1 500.81 129.85
  Q 502.39 127.77 502.44 126.19
  Q 502.83 112.05 504.62 97.01
  A 2.71 2.68 21.6 0 0 503.53 94.53
  Q 501.12 92.77 505.22 92.74
  A 1.20 1.18 -88.4 0 1 506.41 94.01
  Q 506.06 99.14 507.71 104.50
  Z"
/>
<ellipse fill="#190401" fill-opacity="0.996" cx="0.00" cy="0.00" transform="translate(306.81,98.49) rotate(105.7)" rx="1.85" ry="0.77"/>
<path fill="#000000" d="
  M 553.29 99.00
  Q 555.44 100.27 555.63 102.33
  Q 555.73 103.53 554.62 105.87
  Q 552.01 111.38 550.75 115.75
  Q 546.93 128.99 542.75 148.00
  Q 542.20 150.48 539.41 151.81
  Q 536.59 153.15 533.77 154.46
  Q 531.21 155.66 528.66 155.21
  Q 526.96 154.91 524.43 152.82
  Q 522.09 150.89 519.55 149.21
  Q 516.92 147.46 515.25 144.79
  Q 516.50 144.78 517.56 145.94
  Q 518.76 147.25 522.44 149.81
  Q 526.25 152.47 530.06 151.31
  Q 531.56 150.86 534.50 149.45
  Q 534.61 149.40 536.15 148.78
  Q 537.76 148.12 538.82 146.80
  Q 539.59 145.85 540.05 143.86
  Q 542.50 133.14 545.28 122.50
  Q 545.30 122.42 546.59 116.98
  Q 548.49 108.98 552.50 101.75
  Q 552.95 100.93 553.29 99.00
  Z"
/>
<ellipse fill="#000000" cx="0.00" cy="0.00" transform="translate(274.12,100.44) rotate(6.0)" rx="1.96" ry="0.62"/>
<path fill="#000000" d="
  M 250.00 105.71
  Q 249.32 105.68 248.81 106.56
  Q 247.44 108.92 245.14 108.46
  Q 244.00 108.24 241.74 107.09
  Q 238.68 105.53 236.75 102.54
  Q 238.13 102.64 239.28 103.46
  Q 243.96 106.82 246.81 102.24
  A 0.53 0.50 -59.3 0 1 247.50 102.04
  Q 249.55 103.21 250.00 105.71
  Z"
/>
<ellipse fill="#000000" cx="0.00" cy="0.00" transform="translate(214.71,105.66) rotate(1.5)" rx="2.96" ry="2.08"/>
<ellipse fill="#000000" cx="0.00" cy="0.00" transform="translate(353.33,105.43) rotate(3.7)" rx="1.20" ry="0.88"/>
<path fill="#190401" fill-opacity="0.996" d="
  M 222.84 105.71
  Q 224.06 106.92 222.48 107.03
  Q 221.30 107.12 221.99 105.84
  A 0.54 0.54 -53.6 0 1 222.84 105.71
  Z"
/>
<path fill="#000000" d="
  M 290.29 106.25
  Q 292.98 109.78 293.00 111.25
  Q 293.15 121.69 292.50 126.25
  Q 292.29 127.73 290.41 129.20
  A 1.13 1.03 -18.4 0 0 289.97 129.99
  Q 289.30 141.13 288.25 152.25
  Q 287.71 157.97 289.25 165.71
  Q 288.11 165.98 287.35 165.41
  Q 286.78 164.99 286.61 163.86
  Q 285.11 153.98 285.93 143.99
  Q 286.59 136.00 287.37 126.55
  A 1.71 1.68 76.1 0 1 288.13 125.27
  Q 289.70 124.24 289.77 122.41
  Q 289.82 121.17 289.83 121.10
  Q 290.68 113.69 290.29 106.25
  Z"
/>
<ellipse fill="#000000" cx="0.00" cy="0.00" transform="translate(421.61,109.95) rotate(-29.9)" rx="3.10" ry="0.63"/>
<path fill="#000000" d="
  M 238.79 109.50
  Q 241.97 112.26 240.79 116.50
  Q 239.91 116.08 239.00 115.75
  Q 238.40 115.54 237.46 115.61
  Q 235.67 115.75 236.24 114.40
  Q 236.41 114.02 237.06 113.35
  Q 238.59 111.80 238.79 109.50
  Z"
/>
<ellipse fill="#000000" cx="0.00" cy="0.00" transform="translate(184.46,113.84) rotate(133.8)" rx="3.66" ry="0.82"/>
<ellipse fill="#000000" cx="0.00" cy="0.00" transform="translate(57.74,112.63) rotate(83.6)" rx="1.42" ry="0.73"/>
<circle fill="#000000" cx="364.74" cy="120.34" r="1.23"/>
<path fill="#000000" d="
  M 242.54 119.75
  Q 246.11 123.91 247.25 128.50
  Q 249.09 135.93 249.25 144.50
  Q 249.30 146.98 251.71 148.00
  Q 250.41 153.58 251.46 159.25
  Q 250.53 159.05 250.50 159.75
  Q 250.33 163.69 250.79 171.34
  A 0.27 0.24 -9.7 0 0 251.12 171.55
  Q 251.30 171.51 251.50 171.54
  Q 251.00 172.46 250.96 173.50
  Q 249.72 173.78 248.88 174.68
  A 1.54 1.19 73.3 0 0 248.54 175.56
  Q 248.37 178.81 247.41 181.93
  Q 246.71 184.21 244.71 185.50
  L 241.22 182.85
  Q 239.89 181.83 241.62 181.45
  Q 243.03 181.14 243.78 180.04
  Q 246.18 176.50 245.60 172.90
  A 2.20 2.19 68.7 0 1 246.55 170.73
  Q 248.43 169.49 248.11 167.70
  Q 247.96 166.85 247.95 166.79
  Q 247.24 159.09 248.75 151.00
  Q 249.67 146.07 246.79 141.91
  A 1.65 1.59 28.5 0 1 246.50 140.99
  Q 246.42 130.01 242.54 119.75
  Z"
/>
<path fill="#000000" d="
  M 658.21 128.00
  Q 653.55 127.89 650.79 131.55
  Q 646.81 136.84 644.19 142.94
  Q 643.14 145.38 639.13 148.91
  A 1.73 1.61 78.2 0 0 638.63 149.74
  Q 637.89 152.57 636.13 154.74
  Q 634.73 156.47 631.65 157.75
  Q 628.76 158.96 626.00 160.06
  Q 624.49 160.67 623.45 161.92
  Q 620.53 165.45 615.14 167.40
  A 3.21 3.16 -80.1 0 0 613.75 168.39
  Q 611.60 171.02 608.46 171.62
  Q 608.11 171.69 602.53 171.85
  Q 593.12 172.12 589.75 171.75
  Q 588.35 171.60 582.74 169.53
  Q 578.26 167.88 575.75 163.79
  Q 584.80 168.87 595.03 168.48
  Q 599.68 168.30 600.98 168.29
  Q 605.41 168.28 606.94 167.69
  Q 609.72 166.61 611.24 164.46
  A 2.84 2.83 -78.3 0 1 612.96 163.33
  Q 617.22 162.43 619.91 159.16
  Q 621.94 156.68 624.95 155.60
  Q 626.95 154.88 628.95 154.16
  Q 631.42 153.26 632.62 152.14
  Q 635.00 149.93 635.72 146.55
  A 1.55 1.49 75.4 0 1 636.18 145.73
  Q 639.68 142.47 640.94 139.94
  Q 642.07 137.66 646.94 129.69
  Q 649.42 125.62 653.44 124.72
  Q 655.14 124.34 656.35 125.31
  Q 657.62 126.32 658.21 128.00
  Z"
/>
<path fill="#000000" d="
  M 73.25 135.46
  Q 72.30 132.55 69.50 133.46
  Q 66.90 132.63 66.50 130.50
  Q 66.31 129.48 67.16 129.29
  Q 67.64 129.18 68.26 129.53
  Q 70.81 130.97 73.25 132.60
  Q 74.13 133.18 74.26 133.83
  Q 74.48 134.86 73.25 135.46
  Z"
/>
<ellipse fill="#000000" cx="0.00" cy="0.00" transform="translate(174.89,131.11) rotate(98.5)" rx="1.45" ry="0.90"/>
<path fill="#000000" d="
  M 213.96 139.00
  Q 212.43 136.47 208.56 134.44
  Q 206.61 133.41 205.30 134.26
  Q 205.19 134.33 203.30 136.35
  Q 199.75 140.14 197.57 144.84
  Q 196.91 146.26 196.80 148.82
  Q 196.70 151.45 195.69 153.94
  Q 194.90 154.45 195.50 155.04
  Q 194.43 155.77 193.25 156.32
  Q 190.88 157.43 191.06 155.05
  Q 191.19 153.39 192.11 151.99
  Q 194.10 148.97 193.76 145.35
  Q 193.62 143.89 194.21 142.56
  Q 197.12 135.85 203.24 130.21
  A 1.45 1.44 38.7 0 1 204.97 130.03
  Q 210.05 133.07 213.89 136.89
  A 0.99 0.97 -63.4 0 1 214.16 137.74
  L 213.96 139.00
  Z"
/>
<path fill="#000000" d="
  M 158.54 131.75
  Q 160.86 133.88 161.45 136.99
  Q 161.52 137.33 161.67 137.44
  Q 161.89 137.61 162.25 137.54
  Q 162.23 139.12 161.87 139.89
  Q 160.86 142.07 160.36 139.81
  L 158.54 131.75
  Z"
/>
<path fill="#000000" d="
  M 503.96 133.00
  Q 503.99 133.73 504.44 134.31
  Q 506.40 136.84 506.50 138.25
  Q 506.69 140.83 505.06 142.81
  Q 501.26 147.43 500.69 148.44
  Q 498.80 151.77 495.35 149.64
  Q 493.22 148.33 492.72 150.56
  A 2.85 2.85 -8.3 0 1 491.34 152.41
  Q 484.60 156.20 477.92 159.40
  Q 475.09 160.76 472.71 158.33
  A 1.66 1.30 -37.8 0 0 470.80 158.32
  L 468.95 159.54
  A 1.28 0.85 28.1 0 1 468.02 159.63
  Q 463.40 158.42 459.94 154.56
  Q 457.19 151.49 452.81 151.88
  A 1.69 1.48 52.8 0 1 451.89 151.69
  Q 450.68 151.04 447.69 150.06
  Q 445.59 149.37 444.25 146.54
  Q 446.30 146.37 448.03 147.48
  Q 450.23 148.89 452.33 148.36
  Q 454.04 147.92 455.29 149.16
  Q 460.07 153.93 465.08 156.20
  A 1.46 1.45 -59.3 0 0 466.83 155.75
  Q 469.23 152.59 471.27 155.24
  Q 472.74 157.14 474.87 156.04
  Q 481.17 152.81 486.60 150.21
  Q 489.38 148.87 490.38 146.30
  Q 491.16 144.32 492.74 145.74
  Q 495.00 147.77 496.72 146.38
  Q 496.83 146.29 498.89 143.74
  Q 502.40 139.40 503.25 137.75
  Q 503.82 136.65 503.96 133.00
  Z"
/>
<path fill="#000000" d="
  M 674.75 132.96
  Q 675.13 133.84 675.96 134.17
  Q 676.55 134.41 676.79 134.67
  Q 678.57 136.59 676.25 137.11
  Q 675.46 137.28 674.26 137.08
  Q 671.88 136.68 669.49 136.32
  Q 669.03 136.25 668.54 136.44
  Q 664.33 138.02 662.29 133.75
  Q 667.36 132.40 672.50 133.51
  Q 673.79 133.79 674.75 132.96
  Z"
/>
<path fill="#000000" d="
  M 447.00 140.21
  Q 445.26 140.95 444.50 139.29
  Q 445.67 139.22 445.63 138.06
  A 1.48 0.73 76.2 0 1 445.83 137.15
  Q 446.54 136.22 447.07 137.29
  A 1.32 0.81 -55.8 0 1 447.03 138.20
  Q 446.64 139.18 447.00 140.21
  Z"
/>
<path fill="#000000" d="
  M 409.96 145.00
  Q 408.61 145.67 408.71 147.25
  Q 408.95 151.15 408.57 155.01
  Q 408.27 158.04 406.62 160.45
  Q 405.19 162.54 403.46 164.40
  Q 402.30 165.66 400.22 168.23
  Q 397.50 171.60 393.62 173.62
  Q 392.18 174.36 391.14 174.01
  Q 390.06 173.65 388.87 172.55
  Q 387.42 171.23 386.26 172.82
  Q 385.14 174.37 383.06 176.31
  Q 382.36 176.97 382.50 177.71
  L 377.29 181.00
  Q 376.72 180.01 375.25 180.25
  Q 371.58 180.86 370.00 183.71
  Q 367.30 185.20 364.25 184.96
  Q 364.97 182.24 366.71 180.00
  Q 369.47 177.00 373.00 176.75
  Q 375.52 176.57 376.95 176.29
  A 1.50 1.41 -73.3 0 0 377.78 175.81
  L 384.09 168.63
  A 1.37 1.35 -44.0 0 1 386.17 168.65
  Q 388.21 171.17 390.68 170.14
  Q 391.24 169.91 393.47 168.53
  Q 395.10 167.51 395.94 166.44
  Q 398.99 162.50 402.38 158.85
  Q 404.58 156.47 405.25 154.53
  Q 406.14 151.98 406.07 149.25
  Q 405.96 144.30 405.99 144.12
  Q 406.37 141.74 407.54 139.17
  Q 408.02 138.11 408.33 139.20
  L 409.96 145.00
  Z"
/>
<path fill="#000000" d="
  M 110.50 158.71
  Q 107.95 155.72 104.35 155.02
  Q 100.05 154.19 99.63 154.05
  Q 94.79 152.47 89.95 150.89
  Q 89.11 150.61 85.95 150.25
  Q 83.26 149.94 81.08 147.97
  A 1.14 1.13 -26.6 0 0 80.18 147.68
  Q 75.76 148.16 72.38 146.34
  Q 70.24 145.18 67.77 143.67
  Q 65.28 142.15 63.71 139.50
  Q 64.07 139.22 64.81 139.69
  Q 69.10 142.39 71.50 143.50
  Q 74.27 144.78 77.52 143.89
  A 0.85 0.82 59.7 0 1 78.34 144.12
  Q 80.33 146.23 83.07 146.66
  Q 87.27 147.32 87.34 147.34
  Q 92.11 148.72 96.79 150.38
  Q 98.42 150.96 100.31 151.21
  Q 101.52 151.38 102.72 151.59
  Q 103.93 151.80 104.88 152.59
  Q 107.28 154.58 109.58 156.67
  Q 110.49 157.50 110.50 158.71
  Z"
/>
<ellipse fill="#190401" fill-opacity="0.996" cx="0.00" cy="0.00" transform="translate(590.95,140.29) rotate(25.0)" rx="1.00" ry="0.67"/>
<ellipse fill="#000000" cx="0.00" cy="0.00" transform="translate(240.17,143.05) rotate(48.4)" rx="2.32" ry="0.90"/>
<ellipse fill="#000000" cx="0.00" cy="0.00" transform="translate(274.79,157.31) rotate(103.3)" rx="1.15" ry="0.74"/>
<ellipse fill="#000000" cx="0.00" cy="0.00" transform="translate(202.14,161.78) rotate(0.9)" rx="1.66" ry="0.77"/>
<path fill="#5b0602" d="
  M 389.58 162.74
  Q 390.27 162.50 389.93 163.53
  A 0.47 0.40 -64.0 0 1 389.28 163.81
  Q 389.06 163.64 389.07 163.36
  A 0.78 0.65 -10.8 0 1 389.58 162.74
  Z"
/>
<path fill="#190401" fill-opacity="0.996" d="
  M 115.25 164.96
  Q 115.30 164.27 114.75 163.79
  Q 116.71 163.30 118.75 163.34
  Q 120.95 163.39 119.87 164.43
  A 1.41 0.63 5.6 0 1 119.00 164.72
  L 115.25 164.96
  Z"
/>
<path fill="#5b0602" d="
  M 191.38 166.73
  Q 190.56 167.46 190.61 166.66
  A 0.78 0.74 83.3 0 1 191.11 165.99
  Q 191.70 165.78 191.62 166.33
  Q 191.58 166.55 191.38 166.73
  Z"
/>
<path fill="#000000" d="
  M 425.75 174.79
  Q 428.64 174.93 427.96 177.75
  L 425.75 174.79
  Z"
/>
<path fill="#000000" d="
  M 203.79 187.25
  Q 203.75 186.55 203.06 186.49
  Q 199.60 186.18 196.23 185.37
  A 0.85 0.82 27.6 0 0 195.41 185.61
  Q 192.00 189.29 192.25 194.46
  Q 190.72 194.34 190.31 193.19
  Q 188.14 187.06 192.49 181.94
  A 0.94 0.89 22.1 0 1 193.31 181.62
  Q 198.55 182.25 203.47 184.13
  A 1.28 0.99 4.5 0 1 204.16 184.76
  Q 204.65 185.97 203.79 187.25
  Z"
/>
<ellipse fill="#000000" cx="0.00" cy="0.00" transform="translate(175.80,183.37) rotate(45.2)" rx="2.11" ry="0.92"/>
<path fill="#000000" d="
  M 512.04 184.50
  Q 515.24 187.11 514.46 191.25
  L 510.94 189.47
  A 0.60 0.53 31.1 0 1 510.68 188.65
  Q 511.99 186.90 512.04 184.50
  Z"
/>
<path fill="#190401" fill-opacity="0.996" d="
  M 412.04 186.25
  L 415.00 191.46
  Q 412.75 189.30 412.04 186.25
  Z"
/>
<path fill="#000000" d="
  M 411.75 194.96
  Q 405.41 191.57 400.60 196.39
  Q 400.23 196.76 399.77 196.89
  Q 392.29 198.97 384.96 198.29
  Q 382.73 198.09 383.56 200.17
  Q 384.14 201.65 383.63 202.87
  Q 383.26 203.75 381.83 204.55
  Q 379.06 206.12 378.56 206.56
  Q 377.41 207.60 376.29 207.89
  Q 374.35 208.40 374.30 208.42
  Q 370.90 209.93 370.19 210.19
  Q 367.59 211.14 366.78 213.34
  Q 365.82 215.94 365.53 216.31
  Q 364.32 217.89 362.63 218.93
  Q 361.62 219.54 359.19 219.71
  Q 355.86 219.93 352.94 222.44
  Q 350.77 224.30 346.50 227.07
  Q 344.61 228.29 341.88 230.89
  Q 339.04 233.60 335.49 235.32
  Q 332.28 236.88 332.18 236.93
  Q 323.82 241.34 315.21 245.23
  Q 311.35 246.97 307.75 246.50
  Q 304.60 246.08 302.13 246.34
  Q 301.49 246.41 300.02 247.06
  Q 298.96 247.53 297.75 247.52
  Q 293.75 247.50 289.75 247.50
  Q 287.77 247.50 287.72 245.98
  Q 287.72 245.92 287.97 245.06
  Q 288.12 244.55 287.75 244.04
  Q 291.44 243.79 295.14 243.60
  Q 296.19 243.54 298.72 242.78
  Q 300.52 242.24 302.50 242.50
  Q 307.97 243.22 312.93 241.51
  Q 313.84 241.20 322.14 237.00
  Q 327.82 234.13 333.50 231.24
  Q 336.85 229.53 339.55 226.97
  Q 342.47 224.20 344.32 222.97
  Q 348.10 220.46 351.76 217.76
  Q 354.41 215.79 357.25 216.00
  Q 359.21 216.15 360.50 215.20
  Q 361.41 214.53 362.72 213.02
  Q 363.82 211.75 363.97 210.07
  Q 364.12 208.41 365.55 207.57
  Q 368.26 205.97 371.25 205.01
  Q 375.63 203.60 379.42 200.98
  Q 381.98 199.21 380.75 195.99
  A 1.09 1.08 83.2 0 1 381.90 194.52
  Q 389.40 195.51 396.33 193.38
  Q 397.46 193.03 398.38 192.30
  Q 402.93 188.66 408.06 190.69
  Q 410.70 191.73 411.75 194.96
  Z"
/>
<path fill="#000000" d="
  M 158.21 198.00
  Q 157.39 197.80 157.07 198.36
  Q 156.75 198.91 156.71 198.95
  Q 154.40 201.69 151.50 204.95
  A 2.19 2.18 -60.7 0 1 149.24 205.59
  Q 146.88 204.89 148.23 207.05
  A 2.21 2.20 -44.4 0 1 148.20 209.42
  Q 134.43 230.30 111.17 236.80
  A 1.59 1.55 -78.4 0 0 110.39 237.33
  Q 106.81 241.80 100.50 242.50
  Q 84.13 244.32 67.75 246.00
  Q 66.37 246.14 64.01 245.03
  A 0.57 0.55 -60.8 0 0 63.30 245.24
  Q 60.04 250.21 54.00 249.75
  Q 44.91 249.05 37.00 252.25
  Q 36.11 252.61 33.50 252.31
  A 0.93 0.73 16.3 0 0 32.68 252.64
  Q 31.99 253.74 33.73 254.66
  A 1.86 1.86 -66.7 0 1 34.62 256.90
  Q 33.14 261.26 29.96 262.58
  A 1.27 1.25 43.9 0 1 29.03 262.59
  Q 26.74 261.68 25.75 259.29
  Q 31.27 258.26 32.12 252.81
  A 0.91 0.85 -67.3 0 0 31.81 251.98
  Q 30.06 250.55 27.61 250.93
  Q 27.18 251.00 26.89 250.93
  Q 25.93 250.71 26.50 250.19
  Q 26.70 250.01 27.07 249.94
  Q 30.13 249.31 33.19 248.66
  Q 33.45 248.60 39.24 247.06
  Q 45.21 245.48 51.50 246.03
  Q 57.80 246.58 60.54 241.47
  A 1.00 1.00 38.3 0 1 62.18 241.28
  Q 63.64 242.95 65.77 242.68
  Q 81.38 240.75 96.99 238.95
  Q 101.89 238.39 105.19 236.44
  Q 106.54 235.64 107.37 233.77
  A 1.07 0.99 -83.6 0 1 108.04 233.19
  Q 131.84 226.86 145.25 206.23
  Q 146.16 204.84 145.13 202.66
  Q 144.78 201.93 145.58 202.05
  Q 147.86 202.37 149.39 200.61
  Q 150.23 199.65 150.30 199.57
  Q 153.74 196.06 156.47 191.96
  Q 156.92 191.29 157.52 191.54
  A 0.96 0.66 -84.4 0 1 157.95 192.32
  L 158.21 198.00
  Z"
/>
<path fill="#000000" d="
  M 436.79 191.75
  Q 437.81 191.72 438.68 192.32
  Q 443.31 195.51 452.31 202.94
  Q 455.90 205.90 461.32 207.70
  Q 462.42 208.07 463.22 207.92
  Q 464.37 207.70 465.01 206.93
  A 1.22 1.21 -53.7 0 1 466.60 206.68
  Q 470.15 208.98 473.86 209.10
  Q 478.04 209.25 478.13 209.26
  Q 480.52 209.58 482.89 210.03
  Q 484.87 210.40 487.66 210.56
  Q 493.32 210.89 498.60 213.00
  A 0.69 0.63 15.6 0 1 499.03 213.69
  L 498.71 216.00
  Q 497.32 214.90 495.50 214.75
  Q 488.96 214.19 482.47 213.19
  Q 482.37 213.18 476.99 212.75
  Q 473.18 212.45 468.82 210.53
  A 1.09 1.09 36.0 0 0 467.66 210.71
  Q 466.24 211.97 464.58 211.61
  Q 464.23 211.54 461.79 210.52
  Q 458.06 208.96 454.95 206.41
  Q 452.16 204.12 452.10 204.07
  Q 449.33 201.94 446.60 199.76
  Q 446.50 199.68 441.53 196.25
  Q 438.84 194.39 436.79 191.75
  Z"
/>
<ellipse fill="#190401" fill-opacity="0.996" cx="0.00" cy="0.00" transform="translate(500.19,193.98) rotate(4.8)" rx="1.00" ry="0.76"/>
<path fill="#000000" d="
  M 515.79 193.50
  Q 517.78 195.35 518.75 199.25
  Q 519.28 201.38 523.00 209.46
  Q 519.45 204.78 516.50 197.00
  Q 515.62 194.68 515.79 193.50
  Z"
/>
<path fill="#000000" d="
  M 417.79 195.75
  Q 418.88 197.05 419.73 198.51
  Q 420.30 199.47 420.15 200.23
  Q 419.88 201.67 418.00 201.00
  Q 415.85 200.23 414.00 197.29
  L 416.69 197.21
  A 1.22 0.81 10.6 0 0 417.54 196.85
  Q 417.87 196.40 417.79 195.75
  Z"
/>
<ellipse fill="#000000" cx="0.00" cy="0.00" transform="translate(260.25,206.58) rotate(54.6)" rx="1.85" ry="0.72"/>
<path fill="#000000" d="
  M 224.96 218.25
  Q 224.34 218.21 222.94 219.19
  Q 218.45 222.31 214.06 225.57
  Q 209.64 228.85 204.24 227.79
  Q 199.26 226.80 196.50 227.00
  Q 193.70 227.20 191.91 225.11
  Q 190.53 223.51 188.87 225.96
  A 2.36 2.36 14.1 0 1 187.03 227.00
  Q 182.67 227.21 179.23 225.20
  Q 177.61 224.26 173.23 220.32
  Q 169.15 216.64 165.75 212.29
  Q 165.99 212.22 166.22 212.25
  Q 166.41 212.28 166.59 212.47
  Q 173.69 219.63 175.56 220.94
  Q 179.35 223.59 184.01 223.42
  Q 186.78 223.31 187.00 220.50
  Q 187.13 218.79 188.06 220.19
  Q 190.31 223.57 194.50 223.59
  Q 197.54 223.60 200.53 224.00
  Q 204.59 224.55 206.49 224.12
  Q 209.54 223.44 212.08 221.56
  Q 215.11 219.30 215.19 219.26
  Q 220.55 215.72 221.31 214.56
  Q 223.53 211.18 221.73 207.51
  Q 221.20 206.42 222.07 206.85
  A 1.12 0.97 -89.6 0 1 222.58 207.45
  Q 224.45 212.69 224.96 218.25
  Z"
/>
<rect fill="#000000" x="-3.38" y="-0.80" transform="translate(351.64,208.35) rotate(-2.8)" width="6.76" height="1.60" rx="0.26"/>
<path fill="#000000" d="
  M 524.79 212.25
  Q 527.80 215.54 529.00 220.75
  Q 530.77 228.45 526.68 234.14
  Q 525.37 235.97 524.65 237.86
  Q 522.30 244.10 516.44 247.69
  Q 514.39 248.94 508.71 255.50
  Q 504.70 253.19 507.43 250.37
  Q 508.77 249.00 508.85 248.90
  Q 511.83 245.45 515.57 242.82
  Q 520.12 239.61 522.00 234.00
  Q 522.62 232.14 523.88 230.46
  Q 525.41 228.42 525.79 227.04
  Q 527.83 219.60 524.79 212.25
  Z"
/>
<rect fill="#000000" x="-5.43" y="-0.49" transform="translate(45.44,214.59) rotate(-21.4)" width="10.86" height="0.98" rx="0.27"/>
<ellipse fill="#000000" cx="0.00" cy="0.00" transform="translate(522.36,221.30) rotate(69.9)" rx="1.98" ry="0.93"/>
<ellipse fill="#000000" cx="0.00" cy="0.00" transform="translate(92.50,220.73) rotate(-22.5)" rx="1.42" ry="0.98"/>
<path fill="#000000" d="
  M 228.29 222.75
  Q 232.75 225.43 237.36 227.82
  Q 237.42 227.85 239.69 229.18
  Q 243.62 231.48 248.26 230.25
  A 0.83 0.80 78.6 0 1 249.27 230.95
  L 249.75 234.46
  Q 248.16 234.33 246.58 234.17
  Q 245.02 234.01 243.57 233.29
  Q 240.22 231.61 236.88 229.93
  Q 231.75 227.33 228.29 222.75
  Z"
/>
<path fill="#000000" d="
  M 505.00 226.04
  Q 508.11 226.70 510.00 229.25
  Q 510.73 230.23 510.00 231.04
  L 505.00 226.04
  Z"
/>
<path fill="#5b0602" d="
  M 65.37 231.58
  Q 65.01 232.12 64.67 231.62
  A 0.60 0.55 54.4 0 1 64.77 230.82
  Q 65.06 230.62 65.31 230.84
  A 0.61 0.53 -53.7 0 1 65.37 231.58
  Z"
/>
<path fill="#000000" d="
  M 286.75 244.04
  Q 286.29 244.43 285.77 244.73
  Q 285.30 245.00 284.65 245.01
  Q 278.78 245.11 273.02 244.03
  Q 272.91 244.00 270.85 243.84
  Q 268.04 243.60 265.35 240.36
  Q 263.67 238.34 262.42 240.65
  Q 260.10 244.94 256.32 241.55
  Q 256.16 241.42 254.56 240.10
  Q 253.42 239.17 252.75 237.79
  L 253.00 237.75
  A 0.71 0.39 47.5 0 1 253.45 237.90
  Q 258.25 241.37 259.83 236.93
  Q 260.80 234.20 262.62 236.46
  Q 265.54 240.08 268.77 240.32
  Q 271.57 240.52 271.72 240.55
  Q 277.05 241.55 282.46 241.08
  Q 283.15 241.02 283.93 240.60
  Q 286.30 239.32 285.50 241.83
  Q 285.18 242.80 285.31 243.22
  Q 285.56 244.06 286.75 244.04
  Z"
/>
<path fill="#000000" d="
  M 24.00 257.46
  Q 22.96 257.38 22.74 258.21
  Q 22.52 259.06 22.49 259.13
  Q 21.59 261.24 21.75 262.25
  Q 22.61 267.78 24.15 273.16
  Q 25.41 277.57 22.66 276.94
  Q 21.57 276.68 20.33 275.37
  Q 18.04 272.93 15.51 270.76
  Q 14.78 270.13 11.02 267.89
  Q 8.39 266.32 6.54 263.75
  Q 11.18 264.78 13.19 267.31
  Q 16.09 270.97 19.53 273.11
  Q 22.03 274.66 21.50 271.77
  Q 20.51 266.28 19.25 260.86
  Q 18.72 258.58 19.36 256.68
  Q 20.20 254.17 21.50 251.86
  Q 21.87 251.20 22.36 251.01
  Q 23.05 250.75 23.45 251.26
  A 0.85 0.61 -52.3 0 1 23.42 252.11
  Q 21.82 254.93 24.00 257.46
  Z"
/>
<path fill="#5b0602" d="
  M 11.32 255.23
  Q 12.25 255.40 11.50 255.93
  A 0.68 0.58 -37.1 0 1 10.66 255.88
  Q 10.44 255.64 10.63 255.41
  A 0.82 0.56 19.5 0 1 11.32 255.23
  Z"
/>
<path fill="#000000" d="
  M 512.29 260.75
  Q 515.89 264.44 515.49 269.67
  Q 515.36 271.45 515.56 273.24
  Q 515.87 275.98 514.43 274.78
  A 1.92 1.06 87.6 0 1 513.93 273.96
  Q 513.41 272.33 512.04 271.25
  Q 513.06 271.35 512.95 270.61
  Q 512.82 269.80 512.82 269.74
  Q 512.85 265.23 512.29 260.75
  Z"
/>
<path fill="#000000" d="
  M 497.54 262.00
  Q 498.46 261.95 499.11 262.47
  Q 500.09 263.25 500.14 263.27
  Q 503.44 265.04 506.88 263.30
  A 1.27 1.10 -46.3 0 1 507.80 263.21
  Q 510.71 264.18 510.46 267.50
  Q 510.00 266.39 508.81 267.05
  Q 505.37 268.97 502.06 266.19
  Q 498.56 263.25 497.54 262.00
  Z"
/>
</svg>
